<?xml version="1.0" encoding="UTF-8"?>
<!DOCTYPE svg PUBLIC "-//W3C//DTD SVG 1.1//EN" "http://www.w3.org/Graphics/SVG/1.1/DTD/svg11.dtd">
<!-- Creator: CorelDRAW X7 -->
<svg xmlns="http://www.w3.org/2000/svg" xml:space="preserve" width="0.185in" height="0.185in" version="1.1" style="shape-rendering:geometricPrecision; text-rendering:geometricPrecision; image-rendering:optimizeQuality; fill-rule:evenodd; clip-rule:evenodd"
viewBox="0 0 185 185"
 xmlns:xlink="http://www.w3.org/1999/xlink">
 <defs>
  <style type="text/css">
   <![CDATA[
    .fil0 {fill:black}
   ]]>
  </style>
 </defs>
 <g id="Layer_x0020_1">
  <metadata id="CorelCorpID_0Corel-Layer"/>
  <path class="fil0" d="M92 0c52,0 93,41 93,92 0,52 -41,93 -93,93 -51,0 -92,-41 -92,-93 0,-51 41,-92 92,-92zm0 32c14,0 24,10 24,23 0,15 -10,25 -24,25 -13,0 -23,-10 -23,-25 0,-13 10,-23 23,-23zm0 54c31,0 55,15 55,34 0,18 -24,33 -55,33 -30,0 -54,-15 -54,-33 0,-19 24,-34 54,-34z"/>
 </g>
</svg>
