<?xml version="1.0" encoding="UTF-8"?>
<!DOCTYPE svg PUBLIC "-//W3C//DTD SVG 1.1//EN" "http://www.w3.org/Graphics/SVG/1.1/DTD/svg11.dtd">
<!-- Creator: CorelDRAW X7 -->
<svg xmlns="http://www.w3.org/2000/svg" xml:space="preserve" width="4.522in" height="2.692in" version="1.1" style="shape-rendering:geometricPrecision; text-rendering:geometricPrecision; image-rendering:optimizeQuality; fill-rule:evenodd; clip-rule:evenodd"
viewBox="0 0 4522 2692"
 xmlns:xlink="http://www.w3.org/1999/xlink">
 <defs>
  <style type="text/css">
   <![CDATA[
    .str1 {stroke:#FEFEFE;stroke-width:27.7756}
    .str0 {stroke:#FEFEFE;stroke-width:27.7795;stroke-linecap:round;stroke-linejoin:round}
    .fil45 {fill:none}
    .fil46 {fill:#ED3237}
    .fil44 {fill:#AF226D;fill-rule:nonzero}
    .fil6 {fill:white;fill-rule:nonzero}
    .fil30 {fill:url(#id1);fill-rule:nonzero}
    .fil7 {fill:url(#id2);fill-rule:nonzero}
    .fil11 {fill:url(#id3);fill-rule:nonzero}
    .fil43 {fill:url(#id4);fill-rule:nonzero}
    .fil31 {fill:url(#id5);fill-rule:nonzero}
    .fil29 {fill:url(#id6);fill-rule:nonzero}
    .fil21 {fill:url(#id7);fill-rule:nonzero}
    .fil16 {fill:url(#id8);fill-rule:nonzero}
    .fil35 {fill:url(#id9);fill-rule:nonzero}
    .fil1 {fill:url(#id10);fill-rule:nonzero}
    .fil40 {fill:url(#id11);fill-rule:nonzero}
    .fil12 {fill:url(#id12);fill-rule:nonzero}
    .fil33 {fill:url(#id13);fill-rule:nonzero}
    .fil0 {fill:url(#id14);fill-rule:nonzero}
    .fil27 {fill:url(#id15);fill-rule:nonzero}
    .fil37 {fill:url(#id16);fill-rule:nonzero}
    .fil3 {fill:url(#id17);fill-rule:nonzero}
    .fil8 {fill:url(#id18);fill-rule:nonzero}
    .fil36 {fill:url(#id19);fill-rule:nonzero}
    .fil39 {fill:url(#id20);fill-rule:nonzero}
    .fil5 {fill:url(#id21);fill-rule:nonzero}
    .fil20 {fill:url(#id22);fill-rule:nonzero}
    .fil9 {fill:url(#id23);fill-rule:nonzero}
    .fil26 {fill:url(#id24);fill-rule:nonzero}
    .fil42 {fill:url(#id25);fill-rule:nonzero}
    .fil2 {fill:url(#id26);fill-rule:nonzero}
    .fil4 {fill:url(#id27);fill-rule:nonzero}
    .fil15 {fill:url(#id28);fill-rule:nonzero}
    .fil10 {fill:url(#id29);fill-rule:nonzero}
    .fil19 {fill:url(#id30);fill-rule:nonzero}
    .fil28 {fill:url(#id31);fill-rule:nonzero}
    .fil25 {fill:url(#id32);fill-rule:nonzero}
    .fil17 {fill:url(#id33);fill-rule:nonzero}
    .fil18 {fill:url(#id34);fill-rule:nonzero}
    .fil24 {fill:url(#id35);fill-rule:nonzero}
    .fil14 {fill:url(#id36);fill-rule:nonzero}
    .fil34 {fill:url(#id37);fill-rule:nonzero}
    .fil13 {fill:url(#id38);fill-rule:nonzero}
    .fil22 {fill:url(#id39);fill-rule:nonzero}
    .fil32 {fill:url(#id40);fill-rule:nonzero}
    .fil41 {fill:url(#id41);fill-rule:nonzero}
    .fil23 {fill:url(#id42);fill-rule:nonzero}
    .fil38 {fill:url(#id43);fill-rule:nonzero}
   ]]>
  </style>
    <clipPath id="id0">
     <path d="M3299 224c153,0 276,123 276,276 0,152 -123,276 -276,276 -152,0 -276,-124 -276,-276 0,-153 124,-276 276,-276z"/>
    </clipPath>
  <linearGradient id="id1" gradientUnits="userSpaceOnUse" x1="4190.59" y1="1756.02" x2="4190.59" y2="2518.27">
   <stop offset="0" style="stop-opacity:1; stop-color:#2A3581"/>
   <stop offset="1" style="stop-opacity:1; stop-color:#150E42"/>
  </linearGradient>
  <linearGradient id="id2" gradientUnits="userSpaceOnUse" x1="2534.08" y1="1073" x2="4123.12" y2="1073">
   <stop offset="0" style="stop-opacity:1; stop-color:#A737D5"/>
   <stop offset="0.490196" style="stop-opacity:1; stop-color:#CA40A8"/>
   <stop offset="1" style="stop-opacity:1; stop-color:#EE497A"/>
  </linearGradient>
  <linearGradient id="id3" gradientUnits="objectBoundingBox" x1="0%" y1="50%" x2="100%" y2="50%">
   <stop offset="0" style="stop-opacity:1; stop-color:#F8B676"/>
   <stop offset="1" style="stop-opacity:1; stop-color:#F3795F"/>
  </linearGradient>
  <linearGradient id="id4" gradientUnits="userSpaceOnUse" xlink:href="#id3" x1="3829.89" y1="1159.24" x2="3766.94" y2="1188.82">
  </linearGradient>
  <linearGradient id="id5" gradientUnits="userSpaceOnUse" x1="4366.19" y1="1412.99" x2="4420.32" y2="1389.05">
   <stop offset="0" style="stop-opacity:1; stop-color:#52D8FF"/>
   <stop offset="1.2" style="stop-opacity:1; stop-color:#458CFB"/>
   <stop offset="1" style="stop-opacity:1; stop-color:#3840F6"/>
  </linearGradient>
  <linearGradient id="id6" gradientUnits="userSpaceOnUse" xlink:href="#id3" x1="4074.52" y1="2488.81" x2="4061.64" y2="2558.39">
  </linearGradient>
  <linearGradient id="id7" gradientUnits="userSpaceOnUse" xlink:href="#id3" x1="327.709" y1="1859" x2="215.291" y2="1597.71">
  </linearGradient>
  <linearGradient id="id8" gradientUnits="userSpaceOnUse" xlink:href="#id3" x1="859.787" y1="1133.04" x2="970.378" y2="1400.47">
  </linearGradient>
  <linearGradient id="id9" gradientUnits="userSpaceOnUse" xlink:href="#id3" x1="4242.61" y1="1147.16" x2="4212.55" y2="1263.33">
  </linearGradient>
  <linearGradient id="id10" gradientUnits="userSpaceOnUse" x1="1803.01" y1="2573.74" x2="2320.2" y2="-18.7402">
   <stop offset="0" style="stop-opacity:1; stop-color:#9CFFFB"/>
   <stop offset="0.639216" style="stop-opacity:1; stop-color:#9CFFFA"/>
   <stop offset="1" style="stop-opacity:1; stop-color:#9BFFF9"/>
  </linearGradient>
  <linearGradient id="id11" gradientUnits="userSpaceOnUse" xlink:href="#id1" x1="3880.1" y1="1147" x2="3785.06" y2="1207.48">
  </linearGradient>
  <linearGradient id="id12" gradientUnits="userSpaceOnUse" xlink:href="#id1" x1="685.307" y1="2161.42" x2="394.969" y2="2246.77">
  </linearGradient>
  <linearGradient id="id13" gradientUnits="userSpaceOnUse" x1="4333.34" y1="1255.36" x2="3976.66" y2="1780.65">
   <stop offset="0" style="stop-opacity:1; stop-color:#FCF43F"/>
   <stop offset="1" style="stop-opacity:1; stop-color:#D93C65"/>
  </linearGradient>
  <linearGradient id="id14" gradientUnits="userSpaceOnUse" x1="1785.28" y1="2614.32" x2="2337.92" y2="-95.3228">
   <stop offset="0" style="stop-opacity:1; stop-color:#52E9C9"/>
   <stop offset="0.631373" style="stop-opacity:1; stop-color:#4CCCD0"/>
   <stop offset="0.988235" style="stop-opacity:1; stop-color:#45AED8"/>
   <stop offset="1" style="stop-opacity:1; stop-color:#45AED8"/>
  </linearGradient>
  <linearGradient id="id15" gradientUnits="userSpaceOnUse" xlink:href="#id1" x1="4012.12" y1="2618.8" x2="4008.41" y2="2651.24">
  </linearGradient>
  <linearGradient id="id16" gradientUnits="userSpaceOnUse" x1="4131.38" y1="1113.05" x2="4309.21" y2="1113.05">
   <stop offset="0" style="stop-opacity:1; stop-color:#2A3581"/>
   <stop offset="0.478431" style="stop-opacity:1; stop-color:#202262"/>
   <stop offset="1" style="stop-opacity:1; stop-color:#150E42"/>
  </linearGradient>
  <linearGradient id="id17" gradientUnits="userSpaceOnUse" x1="816.146" y1="1434.78" x2="822.988" y2="1281.26">
   <stop offset="0" style="stop-opacity:1; stop-color:#2A3581"/>
   <stop offset="0.678431" style="stop-opacity:1; stop-color:#202262"/>
   <stop offset="1" style="stop-opacity:1; stop-color:#150E42"/>
  </linearGradient>
  <linearGradient id="id18" gradientUnits="userSpaceOnUse" xlink:href="#id3" x1="1026.67" y1="1006.13" x2="1090.59" y2="1112.67">
  </linearGradient>
  <linearGradient id="id19" gradientUnits="userSpaceOnUse" xlink:href="#id3" x1="4257.5" y1="1072.33" x2="4162.67" y2="1156.25">
  </linearGradient>
  <linearGradient id="id20" gradientUnits="userSpaceOnUse" x1="4034.87" y1="1437.96" x2="4070.39" y2="1426.66">
   <stop offset="0" style="stop-opacity:1; stop-color:#FCF43F"/>
   <stop offset="1.70196" style="stop-opacity:1; stop-color:#EB9852"/>
   <stop offset="1" style="stop-opacity:1; stop-color:#D93C65"/>
  </linearGradient>
  <linearGradient id="id21" gradientUnits="userSpaceOnUse" xlink:href="#id1" x1="2045.83" y1="2566.72" x2="2059.33" y2="2093.32">
  </linearGradient>
  <linearGradient id="id22" gradientUnits="userSpaceOnUse" xlink:href="#id3" x1="529.374" y1="1206.2" x2="522.705" y2="1173.69">
  </linearGradient>
  <linearGradient id="id23" gradientUnits="userSpaceOnUse" xlink:href="#id3" x1="1065.99" y1="1097.44" x2="1033.75" y2="1059.6">
  </linearGradient>
  <linearGradient id="id24" gradientUnits="userSpaceOnUse" xlink:href="#id3" x1="4269.37" y1="2502.39" x2="4259.67" y2="2564.09">
  </linearGradient>
  <linearGradient id="id25" gradientUnits="userSpaceOnUse" x1="3846.47" y1="1103.42" x2="3845.7" y2="1109.62">
   <stop offset="0" style="stop-opacity:1; stop-color:#8C54D1"/>
   <stop offset="0.988235" style="stop-opacity:1; stop-color:#1B2773"/>
   <stop offset="1" style="stop-opacity:1; stop-color:#1B2773"/>
  </linearGradient>
  <linearGradient id="id26" gradientUnits="userSpaceOnUse" x1="1212.63" y1="1182.17" x2="1217.58" y2="1000.87">
   <stop offset="0" style="stop-opacity:1; stop-color:#2A3581"/>
   <stop offset="0.670588" style="stop-opacity:1; stop-color:#202262"/>
   <stop offset="1" style="stop-opacity:1; stop-color:#150E42"/>
  </linearGradient>
  <linearGradient id="id27" gradientUnits="userSpaceOnUse" xlink:href="#id1" x1="812.268" y1="1694.6" x2="818.937" y2="1537.44">
  </linearGradient>
  <linearGradient id="id28" gradientUnits="userSpaceOnUse" x1="373.846" y1="1722.93" x2="814.524" y2="1446.43">
   <stop offset="0" style="stop-opacity:1; stop-color:#CB226D"/>
   <stop offset="0.631373" style="stop-opacity:1; stop-color:#8C226D"/>
   <stop offset="1" style="stop-opacity:1; stop-color:#4C236D"/>
  </linearGradient>
  <linearGradient id="id29" gradientUnits="userSpaceOnUse" xlink:href="#id1" x1="698.343" y1="2582.22" x2="647.382" y2="2699.36">
  </linearGradient>
  <linearGradient id="id30" gradientUnits="userSpaceOnUse" xlink:href="#id1" x1="514.232" y1="1036.91" x2="547.744" y2="1229.39">
  </linearGradient>
  <linearGradient id="id31" gradientUnits="userSpaceOnUse" x1="3952.19" y1="2632.28" x2="4068.97" y2="2552.3">
   <stop offset="0" style="stop-opacity:1; stop-color:#2A3581"/>
   <stop offset="0.631373" style="stop-opacity:1; stop-color:#202262"/>
   <stop offset="1" style="stop-opacity:1; stop-color:#150E42"/>
  </linearGradient>
  <linearGradient id="id32" gradientUnits="userSpaceOnUse" xlink:href="#id31" x1="4244.24" y1="2632.02" x2="4360.92" y2="2552.1">
  </linearGradient>
  <linearGradient id="id33" gradientUnits="userSpaceOnUse" x1="232.205" y1="1524.54" x2="405.961" y2="1413.5">
   <stop offset="0" style="stop-opacity:1; stop-color:#CB226D"/>
   <stop offset="0.6" style="stop-opacity:1; stop-color:#8C226D"/>
   <stop offset="1" style="stop-opacity:1; stop-color:#4C236D"/>
  </linearGradient>
  <linearGradient id="id34" gradientUnits="userSpaceOnUse" xlink:href="#id3" x1="593.378" y1="1246.07" x2="549.323" y2="1102.35">
  </linearGradient>
  <linearGradient id="id35" gradientUnits="userSpaceOnUse" xlink:href="#id1" x1="4305.03" y1="2618.77" x2="4301.31" y2="2651.27">
  </linearGradient>
  <linearGradient id="id36" gradientUnits="userSpaceOnUse" xlink:href="#id1" x1="647.354" y1="2123.38" x2="282.52" y2="2273.56">
  </linearGradient>
  <linearGradient id="id37" gradientUnits="userSpaceOnUse" xlink:href="#id3" x1="4246.02" y1="1762.22" x2="4457.08" y2="1762.22">
  </linearGradient>
  <linearGradient id="id38" gradientUnits="userSpaceOnUse" xlink:href="#id1" x1="450.783" y1="2621.23" x2="396.106" y2="2680.81">
  </linearGradient>
  <linearGradient id="id39" gradientUnits="userSpaceOnUse" xlink:href="#id3" x1="328.453" y1="1998.52" x2="301.122" y2="1890.86">
  </linearGradient>
  <linearGradient id="id40" gradientUnits="userSpaceOnUse" xlink:href="#id3" x1="3873.22" y1="1265.29" x2="3775.17" y2="1453.75">
  </linearGradient>
  <linearGradient id="id41" gradientUnits="userSpaceOnUse" xlink:href="#id13" x1="3873.73" y1="1156.5" x2="3798.43" y2="1195.98">
  </linearGradient>
  <linearGradient id="id42" gradientUnits="userSpaceOnUse" xlink:href="#id3" x1="3878.26" y1="1158.35" x2="3843.02" y2="1177.85">
  </linearGradient>
  <linearGradient id="id43" gradientUnits="userSpaceOnUse" x1="4263.06" y1="1151.94" x2="4300.52" y2="1123.19">
   <stop offset="0" style="stop-opacity:1; stop-color:#F8B676"/>
   <stop offset="0.65098" style="stop-opacity:1; stop-color:#F6986B"/>
   <stop offset="1" style="stop-opacity:1; stop-color:#F3795F"/>
  </linearGradient>
 </defs>
 <g id="Layer_x0020_1">
  <metadata id="CorelCorpID_0Corel-Layer"/>
  <g id="_617550224">
   <g id="_967644144">
    <g>
     <g>
      <path class="fil0" d="M4123 186l-46 1957 0 2 -7 302c0,39 -33,72 -72,72l-3893 0c-40,0 -72,-33 -72,-72l-5 -302 0 -2 -28 -1934c0,-39 47,-116 132,-111l2402 -62 1403 -36c50,-1 98,18 133,53 35,35 54,83 53,133z"/>
     </g>
     <g>
      <path class="fil1" d="M3974 2385c0,37 -30,68 -68,68l-3709 0c-37,0 -68,-31 -68,-68l-31 -2087c0,-37 44,-109 126,-104l3624 -92c47,-1 93,17 127,50 33,32 51,77 50,123l-51 2110z"/>
     </g>
     <g>
      <path class="fil2" d="M2096 1088c-1,35 -25,64 -52,64l-1654 8c-31,0 -56,-31 -56,-68 0,-37 26,-69 57,-69l1657 0c28,0 49,31 48,65z"/>
      <path class="fil3" d="M1293 1354c-1,29 -23,52 -50,53l-847 10c-28,0 -51,-23 -50,-53l0 -3c0,-30 23,-54 51,-54l849 -8c26,0 47,23 47,52l0 3z"/>
      <path class="fil4" d="M1287 1608c-1,29 -23,52 -49,53l-844 17c-28,0 -50,-23 -50,-52l0 -4c0,-29 23,-53 51,-54l845 -14c27,0 48,22 47,51l0 3z"/>
     </g>
     <path class="fil5" d="M4077 2146l-7 299c0,40 -33,69 -72,69l-3893 0c-40,0 -72,-29 -72,-69l-5 -299 4049 0z"/>
     <path class="fil6" d="M98 1072c-3,0 -6,-3 -6,-6l0 -746c0,-78 64,-144 140,-144l321 0c3,0 6,3 6,6 0,3 -3,5 -6,5l-321 0c-70,0 -129,61 -129,133l0 746c0,3 -2,6 -5,6z"/>
     <path class="fil7" d="M4123 186l-46 1958 0 2 -871 0c0,-669 -117,-1138 -253,-1469 -42,-104 -87,-193 -131,-270 -71,-124 -139,-214 -191,-274 -58,-67 -97,-97 -97,-97 0,0 0,0 0,0l1403 -36c50,-1 98,18 133,53 35,35 54,83 53,133z"/>
     <path class="fil6" d="M3447 414l-3016 -34c-98,-1 -172,73 -164,164 8,90 94,162 190,161l2968 -33c60,-1 114,-58 120,-128 7,-71 -37,-129 -98,-130z"/>
     <g>
      <path class="fil6" d="M2513 1774c-78,0 -141,-63 -141,-140 0,-78 63,-141 141,-141 77,0 140,63 140,141 0,77 -63,140 -140,140zm0 -262l0 0c-67,0 -122,55 -122,122 0,67 55,121 122,121 67,0 121,-54 121,-121 0,-67 -54,-122 -121,-122z"/>
      <path class="fil6" d="M2509 1706c-36,0 -65,-29 -65,-66 0,-36 29,-66 65,-66 37,0 66,30 66,66 0,37 -29,66 -66,66zm0 -113l0 0c-25,0 -46,21 -46,47 0,26 21,47 46,47 26,0 47,-21 47,-47 0,-26 -21,-47 -47,-47z"/>
      <path class="fil6" d="M3565 1774c-77,0 -140,-63 -140,-140 0,-78 63,-141 140,-141 78,0 141,63 141,141 0,77 -63,140 -141,140zm0 -262l0 0c-67,0 -121,55 -121,122 0,67 54,121 121,121 67,0 122,-54 122,-121 0,-67 -55,-122 -122,-122z"/>
      <path class="fil6" d="M3562 1706c-36,0 -66,-29 -66,-66 0,-36 30,-66 66,-66 36,0 66,30 66,66 0,37 -30,66 -66,66zm0 -113l0 0c-26,0 -47,21 -47,47 0,26 21,47 47,47 26,0 47,-21 47,-47 0,-26 -21,-47 -47,-47z"/>
      <path class="fil6" d="M2669 1667c-5,0 -10,-4 -10,-9 0,-5 4,-10 10,-10l745 -13c0,0 0,0 0,0 5,0 10,4 10,9 0,5 -4,10 -10,10l-745 13c0,0 0,0 0,0z"/>
      <path class="fil6" d="M2362 1694l-35 0c-28,0 -52,-22 -55,-50l-40 -403c-6,-53 10,-104 44,-145 34,-40 81,-65 134,-70 226,-19 664,-47 1052,-24 95,6 174,79 187,174 4,28 8,56 11,80 4,30 27,55 56,62 11,2 21,5 30,7 61,16 105,70 108,133l4 113c1,20 -6,39 -20,53 -14,14 -32,22 -52,22l-56 0c-5,0 -9,-4 -9,-9 0,-5 4,-10 9,-10l56 0c14,0 28,-6 38,-16 10,-11 16,-24 15,-39l-4 -113c-2,-55 -41,-102 -93,-116 -10,-2 -20,-4 -30,-7 -37,-8 -66,-39 -71,-77 -3,-24 -7,-52 -11,-81 -12,-85 -83,-151 -169,-157 -387,-23 -824,5 -1050,24 -47,4 -90,27 -121,64 -30,36 -44,83 -40,130l41 403c2,19 18,33 36,33l35 0c6,0 10,4 10,9 0,6 -4,10 -10,10z"/>
      <path class="fil6" d="M2352 1343c-30,0 -55,-19 -59,-44 -6,-42 -5,-83 3,-121 10,-45 57,-79 112,-79l702 -7c0,0 0,0 0,0 30,0 54,19 55,43l11 140c1,13 -4,25 -13,35 -11,13 -29,20 -48,21l-762 12c0,0 -1,0 -1,0zm1 -9l0 0 0 0 0 0zm757 -223l0 0c0,0 0,0 0,0l-702 7c-46,0 -86,27 -93,64 -8,36 -9,75 -3,115 2,15 20,28 41,27l0 0 762 -12c14,-1 26,-6 34,-15 4,-4 9,-11 8,-21l-10 -139c-2,-15 -18,-26 -37,-26z"/>
      <path class="fil6" d="M2303 1419c-5,0 -9,-4 -9,-9 -1,-5 4,-9 9,-10l894 -34c5,0 10,4 10,9 0,5 -4,10 -9,10l-894 34c-1,0 -1,0 -1,0z"/>
      <path class="fil6" d="M2293 1462c-5,0 -9,-4 -9,-9 0,-5 4,-10 9,-10l904 -31c5,0 10,4 10,9 0,5 -4,10 -9,10l-904 31c-1,0 -1,0 -1,0z"/>
      <path class="fil6" d="M3260 1650c-5,0 -9,-3 -10,-8l-54 -486c-3,-16 2,-33 13,-45 10,-13 26,-20 42,-20l124 -3c1,0 1,0 2,0 37,0 69,29 72,66l34 384c0,5 -4,10 -9,10 -5,1 -10,-3 -10,-8l-34 -384c-2,-28 -26,-49 -53,-49 -1,0 -1,0 -1,0l-124 3c-11,0 -22,5 -29,13 -7,8 -10,19 -8,30 0,0 0,0 0,1l54 486c1,5 -3,10 -8,10 -1,0 -1,0 -1,0z"/>
      <path class="fil6" d="M3313 1623c-15,0 -27,-11 -29,-26l-52 -432c-1,-8 2,-16 7,-23 5,-6 13,-9 21,-10l17 0c15,-1 28,11 29,26l0 0 40 433c1,8 -2,16 -7,22 -6,6 -13,10 -22,10l-4 0c0,0 0,0 0,0zm-36 -472l0 0c0,0 0,0 0,0l-16 0c-3,0 -6,2 -8,4 -1,2 -2,5 -2,8l52 432c0,5 5,9 10,9 0,0 0,0 0,0l4 0c3,0 6,-1 8,-3 2,-3 3,-5 2,-8l-39 -433c-1,-5 -5,-9 -11,-9z"/>
      <path class="fil6" d="M3394 1619c-15,0 -28,-11 -29,-26 -5,-56 -31,-342 -38,-427 -1,-9 2,-18 8,-24 7,-6 15,-9 24,-8l29 4c15,2 26,14 26,28l9 424c0,7 -3,15 -8,21 -6,5 -13,8 -21,8zm-38 -466l0 0c-3,0 -5,1 -7,3 -3,2 -4,5 -3,8 7,85 33,371 38,427 0,5 5,9 10,9 3,0 5,-1 7,-3 2,-2 3,-4 3,-7l-9 -423c0,-5 -4,-10 -9,-10l-29 -4c0,0 -1,0 -1,0z"/>
      <path class="fil6" d="M3545 1333c-30,0 -55,-21 -60,-51l-19 -109c-3,-16 1,-33 12,-45 10,-13 25,-21 41,-22l99 -5c5,0 10,4 10,9 0,5 -4,10 -9,10l-99 5c-11,1 -21,6 -28,14 -6,9 -9,20 -7,30l18 110c4,21 23,36 45,35l132 -8c5,-1 10,3 10,9 0,5 -4,9 -9,10l-132 8c-1,0 -3,0 -4,0z"/>
      <path class="fil6" d="M3795 1534c-20,0 -36,-28 -36,-67 0,-38 16,-67 36,-67 21,0 36,29 36,67 0,39 -15,67 -36,67zm0 -115l0 0c-6,0 -17,19 -17,48 0,30 11,48 17,48 6,0 17,-18 17,-48 0,-29 -11,-48 -17,-48z"/>
     </g>
     <path class="fil6" d="M3904 2457l-420 0c-3,0 -5,-3 -5,-6 0,-3 2,-5 5,-5l420 0c53,0 95,-42 95,-96l0 -1273c0,-3 3,-5 6,-5 2,0 5,2 5,5l0 1273c0,60 -47,107 -106,107z"/>
    </g>
    <g>
     <g>
      <path class="fil8" d="M1042 1129c1,4 -15,11 -24,-7 -1,-9 -6,-46 -1,-53 28,-37 81,-84 81,-84 9,9 1,18 1,18l-25 27c5,9 12,18 15,29 2,9 1,19 -4,27 -4,8 -11,19 -16,27 -11,16 -27,16 -27,16z"/>
      <path class="fil9" d="M1062 1047l-23 20 -7 20 20 23c0,0 7,-39 13,-48 5,-8 2,-12 -3,-15z"/>
     </g>
     <g>
      <path class="fil10" d="M581 2593c0,0 -6,33 -9,67 -1,13 9,24 22,24 44,2 139,6 173,4 5,0 8,-5 6,-10 -1,-4 -4,-7 -8,-9l-156 -72 -28 -4z"/>
      <path class="fil11" d="M576 2573l5 40c0,0 27,13 46,-1l-11 -45 -40 6z"/>
      <path class="fil12" d="M580 1819c-2,10 -11,523 44,752 0,4 -1,8 -5,9 -8,4 -25,9 -45,9 -6,1 -11,-3 -13,-9 -16,-54 -91,-320 -100,-575 -11,-285 0,-10 0,-10l6 -176 113 0z"/>
      <path class="fil13" d="M401 2610c0,0 -9,17 -18,62 -2,8 4,16 12,17 15,1 37,3 55,3 9,0 15,-7 14,-15 -2,-17 -8,-44 -27,-65l-36 -2z"/>
      <path class="fil11" d="M393 2559l11 60c0,0 11,9 33,3l-5 -66 -39 3z"/>
      <path class="fil14" d="M363 1835c-45,270 10,668 28,746 1,4 5,8 10,9 8,1 22,2 35,-2 5,-1 8,-5 8,-10 3,-63 -2,-449 40,-602 2,-8 7,-14 13,-19l81 -58 6 -93 -221 29z"/>
      <g>
       <path class="fil15" d="M649 1322c-135,-2 -283,36 -283,36 -40,233 -7,502 -7,502 104,28 221,-16 221,-16 18,-98 98,-372 98,-372 66,-9 120,-28 164,-53 -34,-39 -50,-89 -57,-119 -47,15 -95,23 -136,22z"/>
       <path class="fil16" d="M1045 1125c-13,-16 -30,-9 -30,-9 -20,84 -123,151 -230,184 7,30 23,80 57,119 177,-99 203,-294 203,-294z"/>
      </g>
      <path class="fil17" d="M418 1488l-52 -130c0,0 -125,85 -146,193 24,2 67,8 109,29 9,-51 89,-92 89,-92z"/>
      <path class="fil11" d="M513 1213l-43 124c-1,2 0,4 2,5 12,7 53,25 104,-7 5,-3 9,-8 10,-15l13 -107 -86 0z"/>
      <g>
       <path class="fil18" d="M605 1099c0,0 47,88 41,124 -6,36 -64,33 -115,4l-35 -95 109 -33z"/>
       <path class="fil19" d="M534 1180c2,-1 3,-3 1,-5 -3,-6 -11,-17 -13,-28 0,0 -8,-5 22,-12 30,-7 74,-19 84,-44 9,-25 -15,-87 -54,-37 -1,1 -4,1 -5,0 -7,-9 -23,-26 -46,-15 -22,9 -24,25 -24,33 0,2 -2,4 -4,4 -11,-2 -37,-4 -49,23 -10,22 -3,34 3,40 1,2 1,5 -2,6 -7,2 -16,8 -15,25 1,23 27,21 34,20 1,0 2,0 3,1 6,7 35,37 66,40 2,1 4,-2 3,-5l-13 -38c0,-2 0,-4 2,-5l7 -3z"/>
       <path class="fil20" d="M539 1186c0,0 -33,-23 -36,-4 -2,19 30,28 46,21l-10 -17z"/>
      </g>
      <path class="fil21" d="M329 1580c0,0 -44,198 -4,309 -49,22 -40,18 -40,18 0,0 -96,-281 -65,-356 61,-7 92,10 109,29z"/>
      <path class="fil22" d="M325 1889c0,0 25,32 23,45 -2,13 -2,18 -2,18 0,0 -13,-8 -12,-19 2,35 13,75 3,73 -11,-2 -66,-53 -54,-107 29,-20 37,-18 42,-10z"/>
     </g>
    </g>
    <g>
     <path class="fil23" d="M3863 1193c0,0 9,-15 8,-28 -1,-13 7,-31 -2,-30 -8,2 -10,0 -12,16 -2,15 -23,71 6,42z"/>
     <g>
      <path class="fil24" d="M4267 2635c-30,-1 -46,-4 -54,-8 0,4 0,7 0,10 0,3 3,6 6,6l167 -1c6,0 9,-6 6,-11 -21,2 -77,6 -125,4z"/>
      <path class="fil25" d="M4220 2571c4,-14 17,-23 31,-22l14 0c74,18 112,59 127,80 0,0 0,1 0,1 -22,2 -78,6 -125,5 -30,-1 -46,-5 -54,-8 0,-24 3,-43 7,-56z"/>
     </g>
     <path class="fil26" d="M4288 2501l-11 56c-1,4 -5,8 -8,8 -5,0 -12,1 -18,0 -6,-1 -11,-7 -10,-14l9 -50 38 0z"/>
     <g>
      <path class="fil27" d="M4046 2635c30,-1 46,-4 54,-8 0,4 0,7 0,10 0,3 -2,6 -5,6l-168 -1c-5,0 -8,-6 -6,-11 22,2 78,6 125,4z"/>
      <path class="fil28" d="M3921 2631c0,-1 0,-1 1,-2 14,-20 52,-61 126,-79l36 -1c0,0 16,27 16,78 -8,4 -24,7 -54,8 -47,2 -103,-2 -125,-4z"/>
     </g>
     <path class="fil29" d="M4091 2495c-1,2 -6,43 -7,58 -1,4 -4,7 -7,7 -6,1 -16,2 -24,0 -5,-1 -8,-5 -8,-11l0 -63 46 9z"/>
     <path class="fil30" d="M4119 1756c0,0 -86,328 -84,740 0,7 5,13 13,15 10,2 26,5 39,5 7,-1 13,-6 15,-13 12,-70 81,-469 120,-534 0,0 26,355 18,539 0,5 3,9 8,10 7,0 18,1 32,-1 5,0 9,-4 10,-9 9,-60 58,-417 56,-674 0,-15 -38,-78 -38,-78l-189 0z"/>
     <path class="fil31" d="M4388 1472c23,-64 15,-141 15,-142l-7 0c0,1 9,77 -14,140l6 2z"/>
     <g>
      <path class="fil32" d="M3788 1499c-19,-105 8,-279 8,-279l38 39c0,0 6,142 33,200 -17,3 -52,10 -79,40z"/>
      <path class="fil33" d="M3867 1459c5,11 11,20 18,23 24,14 71,-63 106,-128 26,-48 45,-90 45,-90 25,-28 87,-32 146,-29 60,4 116,16 120,17 0,0 0,0 0,0 28,4 52,7 70,9 20,2 39,12 52,28 54,62 171,231 33,402 -18,-10 -43,-26 -60,-44 15,-43 17,-98 -15,-165 -1,5 -3,10 -4,16 -44,139 -47,256 -47,282 0,4 -2,7 -5,9 -58,23 -170,9 -208,4 -7,-1 -11,-8 -10,-15 11,-81 -20,-194 -51,-282 -183,182 -249,113 -269,3 27,-30 62,-37 79,-40z"/>
     </g>
     <path class="fil34" d="M4295 1765c16,-9 77,-48 102,-118 17,18 42,34 60,44 -26,33 -62,65 -109,97 -2,37 -30,50 -36,62 -7,12 2,9 -2,24 -4,15 -46,-24 -56,-33 -10,-8 -4,-33 -4,-33 0,0 -1,-5 -4,-15 -2,-10 48,-28 49,-28z"/>
     <g>
      <path class="fil35" d="M4272 1147l11 114c0,0 -65,19 -111,-14l33 -103 67 3z"/>
      <g>
       <path class="fil36" d="M4162 1049c0,2 -4,143 -4,143l81 0 23 -133c0,0 -87,-43 -100,-10z"/>
       <path class="fil37" d="M4234 1076c3,2 4,6 4,9l-7 70c0,1 0,2 -1,3 -2,6 -10,23 -27,13 -15,-8 -28,-15 -39,-15 -6,0 -12,5 -12,11 0,13 0,40 3,64 1,5 6,10 12,9 16,-1 47,-4 72,-11 4,-2 7,-5 7,-9 4,-19 14,-70 19,-85 4,-13 22,-17 31,-19 3,0 6,-2 7,-5 6,-8 13,-25 -8,-39 -5,-3 -6,-10 -3,-15 5,-10 10,-25 -7,-37 -17,-13 -33,-7 -44,-1 -4,3 -10,3 -14,0 -2,-2 -4,-3 -7,-2 -6,1 -13,-2 -14,-8 -3,-10 -10,-22 -30,-23 -35,-2 -48,35 -44,59 4,24 43,24 64,17 15,-5 31,7 38,14z"/>
       <path class="fil38" d="M4262 1161c0,0 -5,-42 11,-49 17,-6 37,4 26,31 -14,34 -37,18 -37,18z"/>
      </g>
     </g>
     <g>
      <path class="fil39" d="M4056 1492c0,0 0,0 0,0 1,0 2,-1 2,-2 0,-1 -11,-89 -5,-115 0,-1 -1,-2 -2,-2 -1,-1 -2,0 -2,1 -6,26 4,113 5,116 0,1 1,2 2,2z"/>
     </g>
     <g>
      <path class="fil40" d="M3800 1100c0,-3 1,-5 3,-6 2,-2 4,-2 7,-2l57 13c3,1 4,3 4,5l-17 150c0,1 0,2 -1,2 0,0 -1,1 -2,0l-50 -6c-4,0 -7,-4 -7,-8l6 -148z"/>
      <path class="fil41" d="M3816 1108c0,-1 1,-2 2,-3 1,-1 2,-1 4,-1l38 10c2,0 3,2 3,5l-14 127c0,1 -1,2 -1,2 -1,0 -1,1 -2,0l-35 -6c-1,0 -2,-1 -2,-2l7 -132z"/>
      <path class="fil42" d="M3838 1105c0,0 1,1 1,1l13 3c1,0 2,0 2,-1l0 0c0,-1 -1,-1 -1,-1l-13 -3c-1,0 -2,0 -2,0l0 1z"/>
     </g>
     <path class="fil43" d="M3780 1138c9,-4 27,-35 31,-25 3,11 -2,25 0,29 1,5 12,29 7,40 -3,9 -9,34 -11,47 -1,4 -5,8 -10,8 -4,0 -8,-4 -9,-8 0,-2 -17,-88 -8,-91z"/>
    </g>
   </g>
   <path class="fil44" d="M551 520c0,-16 3,-27 9,-33 6,-6 16,-9 31,-9l14 0c15,0 26,3 32,8 6,5 9,14 9,27l0 5 -14 0 0 -3c0,-9 -2,-16 -6,-19 -3,-3 -11,-5 -22,-5l-9 0c-7,0 -13,0 -16,1 -3,1 -6,3 -8,5 -3,2 -4,4 -5,8 -1,3 -1,9 -1,18l0 35c0,8 0,14 1,18 1,3 2,6 5,8 2,2 5,3 8,4 3,1 8,2 16,2l9 0c12,0 19,-2 23,-6 3,-3 5,-10 5,-20 0,-1 0,-3 0,-3 0,-1 0,-2 0,-3l14 0 0 8c0,14 -3,23 -9,28 -6,6 -16,8 -32,8l-14 0c-15,0 -25,-3 -31,-9 -6,-6 -9,-17 -9,-32l0 -41z"/>
   <path id="1" class="fil44" d="M682 558l53 0 -24 -65 -5 0 -24 65zm-29 43l44 -121 23 0 45 121 -14 0 -12 -31 -61 0 -11 31 -14 0z"/>
   <polygon id="2" class="fil44" points="781,601 781,480 802,480 867,588 867,480 881,480 881,601 860,601 794,493 794,601 "/>
   <path id="3" class="fil44" d="M906 520c0,-16 3,-27 9,-33 6,-6 16,-9 32,-9l14 0c15,0 25,3 31,8 6,5 9,14 9,27l0 5 -14 0 0 -3c0,-9 -2,-16 -5,-19 -4,-3 -11,-5 -22,-5l-10 0c-7,0 -12,0 -16,1 -3,1 -6,3 -8,5 -2,2 -4,4 -5,8 -1,3 -1,9 -1,18l0 35c0,8 0,14 1,18 1,3 3,6 5,8 2,2 5,3 8,4 3,1 9,2 16,2l10 0c11,0 18,-2 22,-6 4,-3 6,-10 6,-20 0,-1 0,-3 0,-3 -1,-1 -1,-2 -1,-3l14 0 0 8c0,14 -3,23 -9,28 -5,6 -16,8 -31,8l-14 0c-16,0 -26,-3 -32,-9 -6,-6 -9,-17 -9,-32l0 -41z"/>
   <polygon id="4" class="fil44" points="1024,601 1024,480 1109,480 1109,493 1037,493 1037,532 1107,532 1107,545 1037,545 1037,588 1109,588 1109,601 "/>
   <polygon id="5" class="fil44" points="1130,601 1130,480 1144,480 1144,588 1212,588 1212,601 "/>
   <polygon id="6" class="fil44" points="1328,601 1315,601 1315,547 1264,480 1280,480 1321,536 1362,480 1378,480 1328,547 "/>
   <path id="7" class="fil44" d="M1437 491l-8 0c-8,0 -14,0 -18,1 -4,1 -7,3 -9,5 -2,2 -4,5 -5,8 -1,4 -2,10 -2,18l0 35c0,8 1,14 2,17 1,4 3,7 5,9 2,2 5,3 9,4 4,1 10,2 18,2l8 0c8,0 14,-1 18,-2 3,-1 6,-2 9,-4 2,-2 4,-5 5,-8 1,-4 1,-10 1,-18l0 -35c0,-8 0,-14 -1,-18 -1,-3 -3,-6 -5,-8 -3,-2 -6,-4 -9,-5 -4,-1 -10,-1 -18,-1zm-55 29c0,-16 3,-27 9,-33 7,-6 18,-9 34,-9l16 0c16,0 27,3 34,9 6,6 9,17 9,33l0 41c0,15 -3,26 -9,32 -7,6 -18,9 -34,9l-16 0c-16,0 -27,-3 -34,-9 -6,-6 -9,-17 -9,-32l0 -41z"/>
   <path id="8" class="fil44" d="M1508 480l14 0 0 79c0,8 0,13 1,17 1,3 2,5 5,7 2,2 4,3 7,4 3,1 9,1 16,1l13 0c7,0 12,0 15,-1 3,-1 6,-2 8,-4 2,-2 4,-4 4,-7 1,-3 2,-9 2,-17l0 -79 13 0 0 81c0,15 -3,26 -9,32 -6,6 -17,9 -32,9l-15 0c-16,0 -26,-3 -32,-9 -7,-6 -10,-17 -10,-32l0 -81z"/>
   <path id="9" class="fil44" d="M1686 493l-38 0 0 48 38 0c10,0 17,-1 20,-4 3,-2 5,-7 5,-13l0 -14c0,-7 -2,-11 -5,-14 -3,-2 -9,-3 -20,-3zm-52 108l0 -121 55 0c14,0 23,2 28,6 5,4 8,11 8,21l0 19c0,6 -2,11 -4,15 -3,3 -7,5 -12,6 6,2 10,4 12,8 3,3 4,9 4,17l0 29 -14 0 0 -25c0,-9 -2,-15 -4,-18 -3,-3 -8,-4 -16,-4l-43 0 0 47 -14 0z"/>
   <polygon id="10" class="fil44" points="1791,493 1791,480 1881,480 1881,493 1843,493 1843,601 1829,601 1829,493 "/>
   <polygon id="11" class="fil44" points="1894,601 1894,480 1908,480 1908,601 "/>
   <path id="12" class="fil44" d="M1933 520c0,-16 3,-27 9,-33 6,-6 16,-9 31,-9l15 0c15,0 25,3 31,8 6,5 9,14 9,27l0 5 -14 0 0 -3c0,-9 -2,-16 -5,-19 -4,-3 -11,-5 -22,-5l-10 0c-7,0 -12,0 -16,1 -3,1 -6,3 -8,5 -2,2 -4,4 -5,8 -1,3 -1,9 -1,18l0 35c0,8 0,14 1,18 1,3 3,6 5,8 2,2 5,3 8,4 3,1 9,2 16,2l10 0c11,0 18,-2 22,-6 4,-3 5,-10 5,-20 0,-1 0,-3 0,-3 0,-1 0,-2 0,-3l14 0 0 8c0,14 -3,23 -9,28 -6,6 -16,8 -31,8l-15 0c-15,0 -25,-3 -31,-9 -6,-6 -9,-17 -9,-32l0 -41z"/>
   <polygon id="13" class="fil44" points="2051,601 2051,480 2064,480 2064,531 2074,531 2124,480 2141,480 2085,538 2148,601 2130,601 2074,544 2064,544 2064,601 "/>
   <polygon id="14" class="fil44" points="2162,601 2162,480 2247,480 2247,493 2176,493 2176,532 2245,532 2245,545 2176,545 2176,588 2247,588 2247,601 "/>
   <polygon id="15" class="fil44" points="2252,493 2252,480 2343,480 2343,493 2304,493 2304,601 2291,601 2291,493 "/>
   <polygon id="16" class="fil44" points="2412,601 2412,480 2425,480 2425,532 2495,532 2495,480 2509,480 2509,601 2495,601 2495,545 2425,545 2425,601 "/>
   <polygon id="17" class="fil44" points="2538,601 2538,480 2623,480 2623,493 2551,493 2551,532 2621,532 2621,545 2551,545 2551,588 2623,588 2623,601 "/>
   <path id="18" class="fil44" d="M2696 493l-38 0 0 48 38 0c10,0 17,-1 20,-4 3,-2 5,-7 5,-13l0 -14c0,-7 -2,-11 -5,-14 -3,-2 -9,-3 -20,-3zm-52 108l0 -121 55 0c14,0 23,2 28,6 5,4 8,11 8,21l0 19c0,6 -1,11 -4,15 -3,3 -6,5 -12,6 6,2 10,4 12,8 3,3 4,9 4,17l0 29 -14 0 0 -25c0,-9 -1,-15 -4,-18 -3,-3 -8,-4 -16,-4l-43 0 0 47 -14 0z"/>
   <polygon id="19" class="fil44" points="2761,601 2761,480 2846,480 2846,493 2774,493 2774,532 2844,532 2844,545 2774,545 2774,588 2846,588 2846,601 "/>
   <g>
    <path class="fil45 str0" d="M3299 224c153,0 276,123 276,276 0,152 -123,276 -276,276 -152,0 -276,-124 -276,-276 0,-153 124,-276 276,-276z"/>
   </g>
   <path id="1" class="fil46" d="M3299 224c153,0 276,123 276,276 0,152 -123,276 -276,276 -152,0 -276,-124 -276,-276 0,-153 124,-276 276,-276z"/>
   <g style="clip-path:url(#id0)">
    <g id="_761958192">
     <g>
      <line id="2" class="fil45 str1" x1="3024" y1="246" x2="3587" y2= "731" />
      <line class="fil45 str1" x1="3587" y1="246" x2="3024" y2= "731" />
     </g>
    </g>
   </g>
  </g>
 </g>
</svg>
