<?xml version="1.0" encoding="UTF-8"?>
<!DOCTYPE svg PUBLIC "-//W3C//DTD SVG 1.1//EN" "http://www.w3.org/Graphics/SVG/1.1/DTD/svg11.dtd">
<!-- Creator: CorelDRAW X7 -->
<svg xmlns="http://www.w3.org/2000/svg" xml:space="preserve" width="0.19685in" height="0.19685in" version="1.1" style="shape-rendering:geometricPrecision; text-rendering:geometricPrecision; image-rendering:optimizeQuality; fill-rule:evenodd; clip-rule:evenodd"
viewBox="0 0 197 197"
 xmlns:xlink="http://www.w3.org/1999/xlink">
 <defs>
  <style type="text/css">
   <![CDATA[
    .fil1 {fill:#FEFEFE}
    .fil0 {fill:black}
   ]]>
  </style>
 </defs>
 <g id="Layer_x0020_1">
  <metadata id="CorelCorpID_0Corel-Layer"/>
  <path class="fil0" d="M98 0c55,0 99,44 99,98 0,55 -44,99 -99,99 -54,0 -98,-44 -98,-99 0,-54 44,-98 98,-98zm32 158c-6,-10 -13,-20 -18,-31 -13,4 -21,-3 -28,-15 -6,-10 -13,-29 -2,-35l-18 -32c-40,13 10,96 36,113 9,6 20,9 30,0zm-63 -118c-1,5 6,15 8,19 2,3 4,5 5,8 6,10 6,11 15,5 8,-4 8,-3 -3,-23 -8,-12 -9,-24 -25,-9zm66 117c4,0 12,-4 14,-6 3,-3 -2,-9 -4,-13 -2,-4 -5,-8 -7,-12 -2,-3 -5,-11 -8,-11 -3,-1 -11,4 -13,5 -4,4 1,9 3,13 3,4 5,8 7,12 2,4 5,10 8,12z"/>
  <g id="_760013280">
   <path class="fil1" d="M1327 -32c-27,-52 -63,-105 -91,-159 -67,18 -105,-19 -144,-81 -30,-46 -64,-143 -8,-178l-93 -163c-204,69 53,492 184,579 49,33 105,47 152,2z"/>
   <path class="fil1" d="M1004 -637c-1,26 33,74 45,95 10,17 17,29 26,45 27,49 27,53 75,25 43,-25 42,-19 -17,-117 -39,-65 -44,-126 -129,-48z"/>
   <path class="fil1" d="M1347 -37c17,1 58,-21 67,-30 18,-19 -8,-49 -19,-68 -11,-20 -23,-40 -35,-61 -10,-17 -25,-56 -42,-60 -12,-3 -56,21 -64,29 -21,18 4,47 16,67 13,21 23,40 35,62 11,19 25,51 42,61z"/>
  </g>
 </g>
</svg>
