<?xml version="1.0" encoding="UTF-8"?>
<!DOCTYPE svg PUBLIC "-//W3C//DTD SVG 1.1//EN" "http://www.w3.org/Graphics/SVG/1.1/DTD/svg11.dtd">
<!-- Creator: CorelDRAW X7 -->
<svg xmlns="http://www.w3.org/2000/svg" xml:space="preserve" width="3.668in" height="2.692in" version="1.1" style="shape-rendering:geometricPrecision; text-rendering:geometricPrecision; image-rendering:optimizeQuality; fill-rule:evenodd; clip-rule:evenodd"
viewBox="0 0 3668 2692"
 xmlns:xlink="http://www.w3.org/1999/xlink">
 <defs>
  <style type="text/css">
   <![CDATA[
    .fil2 {fill:#49346D;fill-rule:nonzero}
    .fil4 {fill:#4C5A9E;fill-rule:nonzero}
    .fil11 {fill:#5D4999;fill-rule:nonzero}
    .fil12 {fill:#6076BC;fill-rule:nonzero}
    .fil0 {fill:#A3CEFF;fill-rule:nonzero}
    .fil8 {fill:#FF9B9B;fill-rule:nonzero}
    .fil7 {fill:#FFACAC;fill-rule:nonzero}
    .fil10 {fill:#FFB7B7;fill-rule:nonzero}
    .fil9 {fill:#FFC8C0;fill-rule:nonzero}
    .fil5 {fill:#FFDB73;fill-rule:nonzero}
    .fil3 {fill:white;fill-rule:nonzero}
    .fil1 {fill:#606060;fill-rule:nonzero;fill-opacity:0.101961}
    .fil6 {fill:#444444;fill-rule:nonzero;fill-opacity:0.560784}
   ]]>
  </style>
 </defs>
 <g id="Layer_x0020_1">
  <metadata id="CorelCorpID_0Corel-Layer"/>
  <g id="_617041440">
   <g>
    <path class="fil0" d="M292 1613l1106 -1106c39,-39 39,-103 0,-143l0 0c-39,-39 -103,-39 -142,0l-1107 1107c-39,39 -39,103 0,142 39,40 104,40 143,0z"/>
    <path class="fil0" d="M1278 910c-39,-40 -103,-40 -142,0l-1107 1106c-39,39 -39,103 0,143 39,39 104,39 143,0l1106 -1107c39,-39 39,-103 0,-142z"/>
    <path class="fil0" d="M521 2246l746 -746c20,-4 40,-13 55,-28l1107 -1107c39,-39 39,-103 0,-142l0 0c-40,-40 -104,-40 -143,0l-746 746c-20,3 -40,12 -56,28l-1106 1106c-39,39 -39,104 0,143 39,39 104,39 143,0z"/>
    <path class="fil0" d="M1671 1417c-39,-40 -104,-40 -143,0l-1106 1106c-39,39 -39,103 0,143 39,39 103,39 142,0l1107 -1107c39,-39 39,-103 0,-142z"/>
    <path class="fil0" d="M1812 1275l0 0c39,40 103,40 143,0l1106 -1106c39,-39 39,-103 0,-143 -39,-39 -104,-39 -143,0l-1106 1107c-39,39 -39,103 0,142z"/>
    <path class="fil0" d="M2151 1504l1106 -1106c39,-39 39,-103 0,-143 -39,-39 -103,-39 -142,0l-864 864c-15,5 -30,13 -41,25l-1107 1106c-39,40 -39,104 0,143 39,39 104,39 143,0l864 -864c15,-5 29,-13 41,-25z"/>
    <path class="fil0" d="M3639 294c-39,-40 -104,-40 -143,0l-1106 1106c-7,7 -12,14 -17,22l-763 763c-39,39 -39,103 0,143 39,39 104,39 143,0l1106 -1107c7,-6 12,-14 17,-22l763 -763c39,-39 39,-103 0,-142z"/>
    <path class="fil0" d="M3333 866l-1107 1106c-39,40 -39,104 0,143 39,39 104,39 143,0l1106 -1106c39,-40 39,-104 0,-143 -39,-39 -103,-39 -142,0z"/>
    <path class="fil0" d="M2526 197c36,0 65,-29 65,-66 0,-36 -29,-65 -65,-65 -36,0 -66,29 -66,65 0,37 30,66 66,66z"/>
    <path class="fil0" d="M3358 202c50,0 91,-40 91,-91 0,-50 -41,-91 -91,-91 -50,0 -91,41 -91,91 0,51 41,91 91,91z"/>
    <path class="fil0" d="M1003 2414c-50,0 -91,40 -91,91 0,50 41,91 91,91 50,0 91,-41 91,-91 0,-51 -41,-91 -91,-91z"/>
    <path class="fil0" d="M2116 2179c-36,0 -64,28 -64,64 0,35 28,64 64,64 35,0 64,-29 64,-64 0,-36 -29,-64 -64,-64z"/>
    <path class="fil0" d="M278 2326c-35,0 -64,29 -64,64 0,35 29,64 64,64 36,0 64,-29 64,-64 0,-35 -28,-64 -64,-64z"/>
    <path class="fil0" d="M207 1265c36,0 64,-28 64,-64 0,-35 -28,-64 -64,-64 -35,0 -64,29 -64,64 0,36 29,64 64,64z"/>
    <path class="fil0" d="M2045 290c35,0 64,-29 64,-64 0,-36 -29,-64 -64,-64 -36,0 -64,28 -64,64 0,35 28,64 64,64z"/>
   </g>
   <path class="fil1" d="M3504 1512l-280 -50 0 -741c0,-126 -102,-228 -228,-228l-2519 0c-126,0 -228,102 -228,228l0 1201c0,126 102,228 228,228l2069 0c11,56 55,103 115,113l690 122c77,13 151,-39 164,-116l104 -593c14,-77 -38,-151 -115,-164z"/>
   <g>
    <path class="fil2" d="M332 570l191 0 0 408 -191 0c-113,0 -204,-91 -204,-204 0,-113 91,-204 204,-204z"/>
    <path class="fil3" d="M3303 2065l-2825 0c-83,0 -150,-67 -150,-150l0 -1356c0,-83 67,-151 150,-151l2675 0c83,0 150,68 150,151l0 1506z"/>
    <path class="fil1" d="M361 649l1382 0c111,0 201,-90 201,-200l0 -41 -1466 0c-83,0 -150,68 -150,151l0 87c11,2 22,3 33,3z"/>
    <path class="fil4" d="M1764 568l-1363 0c-122,0 -231,75 -273,189l0 -248c0,-128 104,-233 232,-233l1404 0c81,0 146,66 146,146 0,81 -65,146 -146,146z"/>
    <g>
     <polygon class="fil5" points="558,332 586,378 638,390 603,431 607,485 558,464 508,485 513,431 477,390 530,378 "/>
     <polygon class="fil5" points="822,332 850,378 903,390 867,431 872,485 822,464 773,485 777,431 742,390 794,378 "/>
     <polygon class="fil5" points="1087,332 1115,378 1167,390 1132,431 1137,485 1087,464 1037,485 1042,431 1007,390 1059,378 "/>
     <polygon class="fil5" points="1352,332 1379,378 1432,390 1397,431 1401,485 1352,464 1302,485 1306,431 1271,390 1324,378 "/>
     <polygon class="fil5" points="1616,332 1644,378 1696,390 1661,431 1666,485 1616,464 1566,485 1571,431 1536,390 1588,378 "/>
    </g>
    <path class="fil4" d="M607 1686c-14,0 -25,-11 -25,-25l0 -774c0,-14 11,-25 25,-25 13,0 25,11 25,25l0 774c0,14 -12,25 -25,25z"/>
    <g>
     <path class="fil6" d="M2065 1041l-1239 0c-15,0 -28,-13 -28,-29 0,-15 13,-28 28,-28l1239 0c15,0 28,13 28,28 0,16 -13,29 -28,29z"/>
     <path class="fil6" d="M2065 1178l-1239 0c-15,0 -28,-13 -28,-28 0,-16 13,-28 28,-28l1239 0c15,0 28,12 28,28 0,15 -13,28 -28,28z"/>
     <path class="fil6" d="M2065 1316l-1239 0c-15,0 -28,-13 -28,-29 0,-15 13,-28 28,-28l1239 0c15,0 28,13 28,28 0,16 -13,29 -28,29z"/>
     <path class="fil6" d="M2065 1453l-1239 0c-15,0 -28,-13 -28,-28 0,-16 13,-29 28,-29l1239 0c15,0 28,13 28,29 0,15 -13,28 -28,28z"/>
     <path class="fil6" d="M1837 1590l-1013 0c-14,0 -26,-11 -26,-26l0 -7c0,-14 12,-26 26,-26l1013 0c15,0 27,12 27,26l0 7c0,15 -12,26 -27,26z"/>
    </g>
   </g>
   <g>
    <g>
     <g>
      <path class="fil1" d="M2955 1886c0,0 24,-225 209,-277l47 118 -151 195 -105 -36z"/>
      <path class="fil1" d="M3585 1822c-63,-18 -147,-42 -259,-75 -200,-60 -281,-104 -319,-138 14,-87 -11,-183 -83,-270 -91,-110 -64,-245 -24,-326 21,-43 38,-104 -6,-124l0 0c-41,-17 -110,10 -158,107 -70,143 -64,242 -64,242l-229 -50 149 646c0,0 173,63 278,-11 4,-3 8,-6 13,-10 118,13 468,278 622,398 11,-15 18,-33 21,-53l59 -336z"/>
      <g>
       <path class="fil1" d="M3533 2119c-160,-125 -494,-375 -608,-387 -5,3 -9,6 -13,9 -105,74 -278,11 -278,11l-80 -347 -8 18 -55 -26 101 437c0,0 173,63 278,-11 4,-3 8,-6 13,-10 118,13 468,278 622,398 11,-15 18,-33 21,-53l7 -39z"/>
      </g>
      <g>
       <path class="fil1" d="M2794 1515l-422 -196c-33,-16 -47,-55 -32,-88l7 -15c16,-33 55,-47 88,-32l422 196c32,16 47,55 32,88l-7 15c-16,33 -55,47 -88,32z"/>
       <path class="fil1" d="M2810 1481l-422 -196c-29,-14 -44,-48 -35,-78 -2,3 -4,6 -6,9l-7 15c-15,33 -1,72 32,88l422 196c33,15 72,1 88,-32l7 -15c1,-3 2,-7 3,-10 -18,26 -52,36 -82,23z"/>
       <path class="fil1" d="M2749 1658l-457 -213c-33,-15 -47,-55 -32,-88l7 -15c15,-33 55,-47 87,-32l458 213c33,15 47,55 32,88l-7 15c-15,33 -55,47 -88,32z"/>
       <path class="fil1" d="M2766 1622l-458 -212c-29,-14 -44,-47 -35,-77 -3,3 -4,6 -6,9l-7 15c-15,33 -1,73 32,88l457 213c33,15 73,1 88,-32l7 -15c1,-4 3,-7 4,-11 -18,26 -53,36 -82,22z"/>
       <path class="fil1" d="M2654 1773l-389 -181c-33,-15 -47,-55 -32,-88l7 -15c15,-33 55,-47 88,-32l389 181c33,15 47,55 32,88l-7 15c-16,33 -55,47 -88,32z"/>
       <path class="fil1" d="M2671 1736l-389 -181c-29,-14 -43,-46 -36,-76 -2,3 -4,6 -6,10l-7 15c-15,33 -1,73 32,88l389 181c33,15 72,1 88,-32l7 -15c1,-4 3,-8 4,-12 -18,26 -53,35 -82,22z"/>
       <path class="fil1" d="M2575 1872l-334 -156c-29,-13 -41,-47 -28,-76l6 -14c14,-29 48,-41 77,-28l334 156c28,13 41,47 28,76l-7 14c-13,28 -48,41 -76,28z"/>
       <path class="fil1" d="M2587 1846l-334 -155c-27,-13 -40,-43 -31,-71 -1,2 -2,4 -3,6l-6 14c-13,29 -1,63 28,76l334 156c28,13 63,0 76,-28l7 -14c0,-2 1,-4 2,-6 -15,24 -47,34 -73,22z"/>
      </g>
      <path class="fil1" d="M3159 1638c0,0 -51,175 -181,255 0,0 257,193 487,359 31,-21 54,-54 61,-94l63 -354c-222,-87 -430,-166 -430,-166z"/>
      <path class="fil1" d="M3105 1875c72,-58 111,-147 130,-208 -48,-18 -76,-29 -76,-29 0,0 -51,175 -181,255 0,0 257,193 487,359 31,-21 54,-54 61,-94l8 -46c-218,-119 -429,-237 -429,-237z"/>
      <path class="fil1" d="M3164 1609c0,0 250,71 247,107 -19,186 -178,377 -215,360 -36,-17 -241,-190 -241,-190 0,0 121,-32 209,-277z"/>
     </g>
    </g>
    <g>
     <path class="fil2" d="M3389 2343l-689 -121c-77,-14 -129,-88 -116,-165l104 -593c14,-77 88,-129 165,-115l690 121c77,13 129,88 115,165l-104 593c-13,77 -88,129 -165,115z"/>
     <g>
      <path class="fil4" d="M2983 1955c0,0 24,-225 209,-276l47 117 -151 195 -105 -36z"/>
      <path class="fil7" d="M3613 1892c-63,-18 -147,-43 -259,-76 -200,-59 -281,-103 -319,-138 13,-87 -11,-182 -84,-270 -90,-110 -64,-245 -24,-325 22,-44 39,-105 -6,-124 -40,-18 -110,10 -157,106 -70,143 -65,243 -65,243l-253 -54 -77 547c0,0 424,165 529,91 4,-3 8,-6 12,-9 119,12 469,277 623,398 10,-16 18,-34 21,-53l59 -336z"/>
      <path class="fil8" d="M2653 1671c65,-2 133,13 190,29 8,2 17,5 26,8 -26,-18 -48,-39 -68,-63 -38,-48 -75,-113 -90,-179 -3,-5 -6,-10 -8,-15 -7,-13 -26,-18 -38,-10 -53,35 -64,118 -48,175 6,22 19,40 36,55z"/>
      <g>
       <path class="fil8" d="M3561 2188c-160,-125 -494,-375 -609,-387 -4,3 -8,6 -12,10 -105,73 -278,11 -278,11l-80 -348 -9 18 -54 -25 -150 334c0,0 424,165 529,91 4,-3 8,-6 12,-9 119,12 469,277 623,398 10,-16 18,-34 21,-53l7 -40z"/>
      </g>
      <g>
       <g>
        <path class="fil9" d="M2698 1622l-335 -98c-31,-10 -48,-44 -37,-76l7 -21c10,-32 44,-50 75,-40l334 99c31,10 48,44 38,76l-7 21c-10,32 -44,50 -75,39z"/>
        <path class="fil10" d="M2712 1588l-340 -101c-26,-8 -41,-37 -36,-67 -2,3 -3,6 -4,10l-5 15c-11,33 4,69 34,78l339 100c30,10 63,-9 74,-43l5 -15c1,-4 2,-7 2,-11 -13,27 -42,42 -69,34z"/>
       </g>
       <g>
        <path class="fil9" d="M2661 1762l-326 -98c-33,-12 -51,-48 -39,-82l5 -15c12,-33 48,-51 82,-39l325 98c33,11 51,48 39,81l-5 15c-12,34 -48,51 -81,40z"/>
        <path class="fil10" d="M2673 1724l-325 -97c-29,-11 -46,-41 -42,-70 -2,3 -4,6 -5,10l-5 15c-12,34 6,70 39,82l326 98c33,11 69,-6 81,-40l5 -15c2,-4 2,-7 3,-11 -15,26 -47,39 -77,28z"/>
       </g>
       <g>
        <path class="fil9" d="M2688 1473l-277 -85c-32,-11 -49,-46 -38,-78l5 -15c11,-32 47,-49 79,-38l277 84c32,12 49,47 38,79l-5 15c-11,32 -47,49 -79,38z"/>
        <path class="fil10" d="M2701 1437l-277 -85c-29,-10 -46,-39 -41,-67 -2,3 -4,6 -5,10l-5 15c-11,32 6,67 38,78l277 85c32,11 68,-6 79,-38l5 -15c1,-4 2,-7 3,-11 -15,25 -46,38 -74,28z"/>
       </g>
       <path class="fil9" d="M2603 1878l-282 -93c-27,-9 -42,-40 -32,-67l6 -19c10,-28 40,-42 68,-33l281 93c28,10 42,40 33,67l-7 20c-9,27 -40,42 -67,32z"/>
       <path class="fil10" d="M2614 1853l-286 -94c-25,-9 -38,-36 -31,-63 -1,1 -2,3 -3,5l-5 15c-10,28 4,59 30,69l286 94c26,9 56,-7 66,-36l5 -14c1,-2 1,-4 2,-6 -12,25 -39,39 -64,30z"/>
      </g>
      <path class="fil4" d="M3186 1707c0,0 -50,175 -180,255 0,0 257,193 487,359 31,-21 54,-54 61,-93l62 -355c-221,-87 -430,-166 -430,-166z"/>
      <path class="fil11" d="M3133 1944c72,-58 110,-147 129,-208 -47,-18 -76,-29 -76,-29 0,0 -50,175 -180,255 0,0 257,193 487,359 31,-21 54,-54 61,-93l8 -46c-218,-120 -429,-238 -429,-238z"/>
      <path class="fil12" d="M3192 1679c0,0 250,71 246,106 -19,186 -178,377 -214,361 -36,-17 -241,-191 -241,-191 0,0 121,-32 209,-276z"/>
     </g>
    </g>
   </g>
  </g>
 </g>
</svg>
