<?xml version="1.0" encoding="UTF-8"?>
<!DOCTYPE svg PUBLIC "-//W3C//DTD SVG 1.1//EN" "http://www.w3.org/Graphics/SVG/1.1/DTD/svg11.dtd">
<!-- Creator: CorelDRAW X7 -->
<svg xmlns="http://www.w3.org/2000/svg" xml:space="preserve" width="0.299646in" height="0.398701in" version="1.1" style="shape-rendering:geometricPrecision; text-rendering:geometricPrecision; image-rendering:optimizeQuality; fill-rule:evenodd; clip-rule:evenodd"
viewBox="0 0 300 399"
 xmlns:xlink="http://www.w3.org/1999/xlink">
 <defs>
  <style type="text/css">
   <![CDATA[
    .fil0 {fill:#FEFEFE}
    .fil1 {fill:black}
    .fil2 {fill:#F7F7F7}
   ]]>
  </style>
 </defs>
 <g id="Layer_x0020_1">
  <metadata id="CorelCorpID_0Corel-Layer"/>
  <g id="_759858608">
   <path class="fil0" d="M1378 69c-27,-52 -63,-105 -91,-160 -66,19 -104,-18 -144,-80 -29,-46 -63,-143 -8,-178l-93 -164c-204,70 54,492 185,580 49,33 105,47 151,2z"/>
   <path class="fil0" d="M1056 -536c-1,25 33,74 45,95 9,17 17,29 26,45 27,49 26,53 74,25 43,-25 42,-19 -17,-117 -39,-66 -43,-126 -128,-48z"/>
   <path class="fil0" d="M1398 64c18,1 59,-21 68,-31 18,-18 -9,-48 -19,-67 -12,-20 -24,-40 -36,-61 -10,-17 -25,-56 -41,-60 -12,-3 -56,21 -65,29 -21,18 5,47 17,67 12,21 22,39 35,62 10,19 25,51 41,61z"/>
  </g>
  <path class="fil1" d="M148 399c4,-8 12,-18 18,-26 39,-54 99,-123 123,-182 11,-25 14,-45 7,-74 -25,-116 -178,-162 -264,-61 -27,32 -41,84 -25,133 21,64 90,139 130,197 2,2 4,4 5,6 3,4 2,5 6,7zm-6 -301c-38,5 -64,37 -59,74 4,35 36,63 76,58 33,-4 63,-35 58,-75 -5,-33 -36,-62 -75,-57z"/>
  <path class="fil2" d="M-2381 -429c-135,18 -226,133 -209,263 15,122 127,223 268,205 119,-16 223,-125 204,-264 -15,-119 -126,-222 -263,-204z"/>
 </g>
</svg>
