<?xml version="1.0" encoding="UTF-8"?>
<!DOCTYPE svg PUBLIC "-//W3C//DTD SVG 1.1//EN" "http://www.w3.org/Graphics/SVG/1.1/DTD/svg11.dtd">
<!-- Creator: CorelDRAW X7 -->
<svg xmlns="http://www.w3.org/2000/svg" xml:space="preserve" width="2.1278in" height="1.16634in" version="1.1" style="shape-rendering:geometricPrecision; text-rendering:geometricPrecision; image-rendering:optimizeQuality; fill-rule:evenodd; clip-rule:evenodd"
viewBox="0 0 2128 1166"
 xmlns:xlink="http://www.w3.org/1999/xlink">
 <defs>
  <style type="text/css">
   <![CDATA[
    .fil2 {fill:#178AC5}
    .fil0 {fill:#303191}
    .fil1 {fill:#E42224}
   ]]>
  </style>
 </defs>
 <g id="Layer_x0020_1">
  <metadata id="CorelCorpID_0Corel-Layer"/>
  <g id="_733089552">
   <path class="fil0" d="M929 626c11,11 10,14 16,26 20,27 39,66 55,95 26,46 44,56 34,80 -5,13 -13,11 -17,24 54,0 154,11 199,-4 -1,-2 -3,-4 -4,-5 -1,-1 -3,-4 -4,-5 -1,-1 -7,-5 -9,-6 -31,-24 -149,-230 -176,-282 31,-35 105,-76 147,-104 26,-17 51,-35 76,-52 14,-10 66,-36 73,-52l-208 -2c7,28 8,3 14,35l-203 140c-17,13 -10,10 -29,14 -13,18 -13,16 -29,25 1,-25 29,-167 48,-190l21 -24 -159 0c13,55 -13,-35 7,15 9,23 9,22 3,49l-77 328c-6,23 -9,45 -15,66 -13,49 -24,21 -34,54l157 1c-7,-56 -29,21 10,-145 16,-68 49,-44 89,-92 26,4 3,-1 15,11z"/>
   <path class="fil0" d="M230 850l174 2c-6,-37 -2,6 -10,-24 -8,-28 13,-41 61,-113l246 -347c7,-7 11,-9 15,-13 12,-10 7,-1 15,-17l-169 11c13,27 12,17 7,34 -1,5 -22,36 -26,42l-160 231c-19,-29 -55,-244 -55,-266 23,-17 17,-1 29,-25l-41 8c-23,70 81,282 40,322 -12,-21 -69,-298 -67,-330 19,-12 22,-8 30,-26l-181 0c5,17 2,5 8,14 27,38 22,47 36,107l77 340c1,42 -18,24 -29,50z"/>
   <path class="fil0" d="M1352 361l16 30 78 350c27,116 -1,63 -16,109 29,2 58,2 86,2 24,0 56,4 78,-4 2,0 4,-2 5,-2 1,0 3,-1 4,-2l-11 -10c-7,-44 207,-322 243,-378l66 -90c16,-13 22,-11 30,-27l-175 1c8,36 20,-3 14,37 -1,12 -18,33 -24,43 -37,55 -141,198 -159,239 -9,-9 -4,-1 -11,-15l-47 -211c-11,-66 11,-36 27,-68 -28,2 -22,0 -43,11 -14,71 73,279 44,319 -16,-23 -71,-291 -67,-330 5,-3 12,-6 16,-9 11,-10 6,-1 14,-17l-182 1c5,21 -4,3 14,21z"/>
   <path class="fil1" d="M802 252l354 -111c212,-56 615,-127 807,-19 177,100 39,267 19,312 145,-102 353,-489 -344,-427 -156,13 -313,51 -448,93 -84,25 -341,113 -388,152z"/>
   <path class="fil1" d="M1341 867c-54,17 -113,45 -169,66 -175,66 -378,123 -566,149 -142,19 -516,41 -531,-156 -7,-86 36,-124 59,-182 -45,27 -222,249 -80,356 197,148 686,13 905,-64 101,-35 314,-119 382,-169z"/>
   <path class="fil2" d="M415 846c24,-8 8,5 25,-25l300 -428c5,-5 14,-10 15,-12l15 -17c-57,2 -61,30 -112,102l-172 247c-21,30 -83,103 -71,133z"/>
   <path class="fil2" d="M1592 834l11 10 21 2c52,-91 112,-163 167,-246 27,-41 55,-81 83,-119l65 -91c23,-20 16,2 29,-25 -55,-3 -62,31 -111,100l-245 355c-15,17 13,5 -20,14z"/>
   <path class="fil2" d="M1199 831c2,1 8,5 9,6 1,1 3,4 4,5 1,1 3,3 4,5 7,-32 -137,-219 -152,-281 46,-26 93,-62 140,-93 43,-28 106,-80 151,-96 4,5 5,3 13,14l-16 -30c-88,35 -60,28 -155,91l-153 102c12,51 162,263 155,277z"/>
   <path class="fil2" d="M945 652c-6,-12 -5,-15 -16,-26 -6,20 0,8 -42,35 -17,12 -31,20 -38,43l-23 99c-10,43 -2,32 2,39 20,-11 5,16 17,-21 24,-73 -3,-128 100,-169z"/>
   <path class="fil2" d="M893 528c19,-4 12,-1 29,-14 -9,-19 23,-118 23,-119 9,-14 17,-8 27,-31 -53,3 -47,15 -58,61 -8,37 -17,66 -21,103z"/>
  </g>
 </g>
</svg>
