<?xml version="1.0" encoding="UTF-8"?>
<!DOCTYPE svg PUBLIC "-//W3C//DTD SVG 1.1//EN" "http://www.w3.org/Graphics/SVG/1.1/DTD/svg11.dtd">
<!-- Creator: CorelDRAW X7 -->
<svg xmlns="http://www.w3.org/2000/svg" xml:space="preserve" width="0.171772in" height="0.111614in" version="1.1" style="shape-rendering:geometricPrecision; text-rendering:geometricPrecision; image-rendering:optimizeQuality; fill-rule:evenodd; clip-rule:evenodd"
viewBox="0 0 172 112"
 xmlns:xlink="http://www.w3.org/1999/xlink">
 <defs>
  <style type="text/css">
   <![CDATA[
    .fil0 {fill:#FEFEFE}
    .fil1 {fill:black}
   ]]>
  </style>
 </defs>
 <g id="Layer_x0020_1">
  <metadata id="CorelCorpID_0Corel-Layer"/>
  <g id="_759992576">
   <path class="fil0" d="M1314 -74c-26,-53 -63,-106 -91,-160 -66,18 -104,-18 -144,-80 -29,-46 -63,-144 -8,-178l-93 -164c-204,70 54,492 185,580 49,32 105,46 151,2z"/>
   <path class="fil0" d="M992 -680c-1,26 33,74 45,96 9,16 17,28 26,44 27,49 26,53 74,25 43,-25 42,-18 -17,-117 -39,-65 -43,-126 -128,-48z"/>
   <path class="fil0" d="M1334 -79c18,0 59,-22 68,-31 18,-19 -9,-49 -19,-68 -12,-20 -24,-40 -36,-61 -10,-17 -25,-55 -41,-59 -12,-3 -56,21 -64,28 -22,19 4,48 16,67 12,21 23,40 35,62 10,19 25,52 41,62z"/>
  </g>
  <g id="_759993376">
  </g>
  <path class="fil1" d="M19 0l134 0c3,0 5,1 8,2l-74 53 -75 -54c2,-1 5,-1 7,-1zm150 10c2,3 3,6 3,9l0 74c0,10 -9,19 -19,19l-3 0 -62 -44 81 -58zm-35 102l-95 0 48 -34 47 34zm-111 0l-4 0c-10,0 -19,-9 -19,-19l0 -74c0,-4 1,-7 3,-10l82 58 -62 45z"/>
 </g>
</svg>
