<?xml version="1.0" encoding="UTF-8"?>
<!DOCTYPE svg PUBLIC "-//W3C//DTD SVG 1.1//EN" "http://www.w3.org/Graphics/SVG/1.1/DTD/svg11.dtd">
<!-- Creator: CorelDRAW X7 -->
<svg xmlns="http://www.w3.org/2000/svg" xml:space="preserve" width="0.169in" height="0.169in" version="1.1" style="shape-rendering:geometricPrecision; text-rendering:geometricPrecision; image-rendering:optimizeQuality; fill-rule:evenodd; clip-rule:evenodd"
viewBox="0 0 169 169"
 xmlns:xlink="http://www.w3.org/1999/xlink">
 <defs>
  <style type="text/css">
   <![CDATA[
    .fil0 {fill:#373435}
   ]]>
  </style>
 </defs>
 <g id="Layer_x0020_1">
  <metadata id="CorelCorpID_0Corel-Layer"/>
  <path class="fil0" d="M85 0c46,0 84,38 84,85 0,46 -38,84 -84,84 -47,0 -85,-38 -85,-84 0,-47 38,-85 85,-85zm26 136c-4,-9 -10,-18 -15,-27 -11,3 -18,-3 -24,-13 -5,-8 -11,-24 -2,-30l-15 -28c-34,12 9,83 31,98 8,5 17,8 25,0l0 0zm-54 -102c0,5 5,13 7,16 2,3 4,5 5,8 5,8 5,9 13,4 7,-4 7,-3 -4,-20 -6,-11 -7,-21 -21,-8zm58 101c2,1 9,-4 11,-5 3,-3 -2,-8 -3,-11 -2,-4 -4,-7 -6,-10 -2,-4 -4,-10 -7,-10 -2,-1 -9,3 -11,4 -4,3 1,8 3,12 2,3 3,6 5,10 2,3 5,9 8,10l0 0z"/>
 </g>
</svg>
