<?xml version="1.0" encoding="UTF-8"?>
<!DOCTYPE svg PUBLIC "-//W3C//DTD SVG 1.1//EN" "http://www.w3.org/Graphics/SVG/1.1/DTD/svg11.dtd">
<!-- Creator: CorelDRAW X7 -->
<svg xmlns="http://www.w3.org/2000/svg" xml:space="preserve" width="4.522in" height="2.692in" version="1.1" style="shape-rendering:geometricPrecision; text-rendering:geometricPrecision; image-rendering:optimizeQuality; fill-rule:evenodd; clip-rule:evenodd"
viewBox="0 0 4522 2692"
 xmlns:xlink="http://www.w3.org/1999/xlink">
 <defs>
  <style type="text/css">
   <![CDATA[
    .fil55 {fill:#161D28;fill-rule:nonzero}
    .fil54 {fill:#1C2638;fill-rule:nonzero}
    .fil53 {fill:#27344A;fill-rule:nonzero}
    .fil50 {fill:#384762;fill-rule:nonzero}
    .fil48 {fill:#445578;fill-rule:nonzero}
    .fil59 {fill:#8B8B8B;fill-rule:nonzero}
    .fil46 {fill:#9C226D;fill-rule:nonzero}
    .fil57 {fill:#C6C6C6;fill-rule:nonzero}
    .fil58 {fill:#D9D9D9;fill-rule:nonzero}
    .fil51 {fill:#ECECEC;fill-rule:nonzero}
    .fil60 {fill:#F6F6F6;fill-rule:nonzero}
    .fil6 {fill:white;fill-rule:nonzero}
    .fil52 {fill:black;fill-rule:nonzero;fill-opacity:0.090196}
    .fil47 {fill:black;fill-rule:nonzero;fill-opacity:0.101961}
    .fil49 {fill:#445578;fill-rule:nonzero;fill-opacity:0.301961}
    .fil56 {fill:white;fill-rule:nonzero;fill-opacity:0.321569}
    .fil62 {fill:#384762;fill-rule:nonzero;fill-opacity:0.419608}
    .fil61 {fill:#445578;fill-rule:nonzero;fill-opacity:0.431373}
    .fil19 {fill:url(#id0);fill-rule:nonzero}
    .fil32 {fill:url(#id1);fill-rule:nonzero}
    .fil14 {fill:url(#id2);fill-rule:nonzero}
    .fil39 {fill:url(#id3);fill-rule:nonzero}
    .fil36 {fill:url(#id4);fill-rule:nonzero}
    .fil11 {fill:url(#id5);fill-rule:nonzero}
    .fil44 {fill:url(#id6);fill-rule:nonzero}
    .fil20 {fill:url(#id7);fill-rule:nonzero}
    .fil22 {fill:url(#id8);fill-rule:nonzero}
    .fil28 {fill:url(#id9);fill-rule:nonzero}
    .fil41 {fill:url(#id10);fill-rule:nonzero}
    .fil24 {fill:url(#id11);fill-rule:nonzero}
    .fil33 {fill:url(#id12);fill-rule:nonzero}
    .fil8 {fill:url(#id13);fill-rule:nonzero}
    .fil0 {fill:url(#id14);fill-rule:nonzero}
    .fil45 {fill:url(#id15);fill-rule:nonzero}
    .fil10 {fill:url(#id16);fill-rule:nonzero}
    .fil27 {fill:url(#id17);fill-rule:nonzero}
    .fil15 {fill:url(#id18);fill-rule:nonzero}
    .fil18 {fill:url(#id19);fill-rule:nonzero}
    .fil29 {fill:url(#id20);fill-rule:nonzero}
    .fil34 {fill:url(#id21);fill-rule:nonzero}
    .fil31 {fill:url(#id22);fill-rule:nonzero}
    .fil21 {fill:url(#id23);fill-rule:nonzero}
    .fil9 {fill:url(#id24);fill-rule:nonzero}
    .fil43 {fill:url(#id25);fill-rule:nonzero}
    .fil16 {fill:url(#id26);fill-rule:nonzero}
    .fil40 {fill:url(#id27);fill-rule:nonzero}
    .fil25 {fill:url(#id28);fill-rule:nonzero}
    .fil13 {fill:url(#id29);fill-rule:nonzero}
    .fil38 {fill:url(#id30);fill-rule:nonzero}
    .fil37 {fill:url(#id31);fill-rule:nonzero}
    .fil12 {fill:url(#id32);fill-rule:nonzero}
    .fil30 {fill:url(#id33);fill-rule:nonzero}
    .fil23 {fill:url(#id34);fill-rule:nonzero}
    .fil26 {fill:url(#id35);fill-rule:nonzero}
    .fil42 {fill:url(#id36);fill-rule:nonzero}
    .fil17 {fill:url(#id37);fill-rule:nonzero}
    .fil35 {fill:url(#id38);fill-rule:nonzero}
    .fil1 {fill:url(#id39);fill-rule:nonzero;fill-opacity:0.400000}
    .fil5 {fill:url(#id40);fill-rule:nonzero;fill-opacity:0.501961}
    .fil4 {fill:url(#id41);fill-rule:nonzero;fill-opacity:0.501961}
    .fil2 {fill:url(#id42);fill-rule:nonzero;fill-opacity:0.501961}
    .fil3 {fill:url(#id43);fill-rule:nonzero;fill-opacity:0.501961}
    .fil7 {fill:url(#id44);fill-rule:nonzero;fill-opacity:0.600000}
   ]]>
  </style>
  <linearGradient id="id0" gradientUnits="userSpaceOnUse" x1="469.583" y1="1283.48" x2="599.472" y2="1283.48">
   <stop offset="0" style="stop-opacity:1; stop-color:#F8B676"/>
   <stop offset="1" style="stop-opacity:1; stop-color:#F3795F"/>
  </linearGradient>
  <linearGradient id="id1" gradientUnits="userSpaceOnUse" x1="4190.55" y1="1794.59" x2="4190.55" y2="2480.25">
   <stop offset="0" style="stop-opacity:1; stop-color:#2A3581"/>
   <stop offset="1" style="stop-opacity:1; stop-color:#150E42"/>
  </linearGradient>
  <linearGradient id="id2" gradientUnits="userSpaceOnUse" xlink:href="#id0" x1="393.146" y1="2590.04" x2="437.02" y2="2590.04">
  </linearGradient>
  <linearGradient id="id3" gradientUnits="userSpaceOnUse" xlink:href="#id1" x1="4131.54" y1="1112.97" x2="4309.29" y2="1112.97">
  </linearGradient>
  <linearGradient id="id4" gradientUnits="userSpaceOnUse" xlink:href="#id0" x1="4246.26" y1="1762.16" x2="4457.05" y2="1762.16">
  </linearGradient>
  <linearGradient id="id5" gradientUnits="userSpaceOnUse" xlink:href="#id0" x1="576.28" y1="2592.65" x2="627.094" y2="2592.65">
  </linearGradient>
  <linearGradient id="id6" gradientUnits="userSpaceOnUse" x1="3846.81" y1="1102.33" x2="3845.11" y2="1110.22">
   <stop offset="0" style="stop-opacity:1; stop-color:#8C54D1"/>
   <stop offset="0.988235" style="stop-opacity:1; stop-color:#1B2773"/>
   <stop offset="1" style="stop-opacity:1; stop-color:#1B2773"/>
  </linearGradient>
  <linearGradient id="id7" gradientUnits="userSpaceOnUse" xlink:href="#id0" x1="592.031" y1="1242.37" x2="550.858" y2="1105.98">
  </linearGradient>
  <linearGradient id="id8" gradientUnits="userSpaceOnUse" xlink:href="#id0" x1="530.177" y1="1209.35" x2="522.303" y2="1170.56">
  </linearGradient>
  <linearGradient id="id9" gradientUnits="userSpaceOnUse" xlink:href="#id0" x1="4270.19" y1="2498.23" x2="4259.24" y2="2568.14">
  </linearGradient>
  <linearGradient id="id10" gradientUnits="userSpaceOnUse" x1="4030.02" y1="1439.52" x2="4074.76" y2="1425.1">
   <stop offset="0" style="stop-opacity:1; stop-color:#FCF43F"/>
   <stop offset="1" style="stop-opacity:1; stop-color:#D93C65"/>
  </linearGradient>
  <linearGradient id="id11" gradientUnits="userSpaceOnUse" xlink:href="#id0" x1="331.583" y1="2009.91" x2="298.213" y2="1879.19">
  </linearGradient>
  <linearGradient id="id12" gradientUnits="userSpaceOnUse" x1="4366.98" y1="1412.63" x2="4418.96" y2="1389.01">
   <stop offset="0" style="stop-opacity:1; stop-color:#52D8FF"/>
   <stop offset="1" style="stop-opacity:1; stop-color:#3840F6"/>
  </linearGradient>
  <linearGradient id="id13" gradientUnits="userSpaceOnUse" xlink:href="#id0" x1="1019.91" y1="994.516" x2="1097.39" y2="1124.53">
  </linearGradient>
  <linearGradient id="id14" gradientUnits="userSpaceOnUse" x1="1798.97" y1="2549.09" x2="2324.27" y2="-30.5551">
   <stop offset="0" style="stop-opacity:1; stop-color:#52E9C9"/>
   <stop offset="0.988235" style="stop-opacity:1; stop-color:#45AED8"/>
   <stop offset="1" style="stop-opacity:1; stop-color:#45AED8"/>
  </linearGradient>
  <linearGradient id="id15" gradientUnits="userSpaceOnUse" xlink:href="#id0" x1="3839.58" y1="1154.23" x2="3756.66" y2="1193.43">
  </linearGradient>
  <linearGradient id="id16" gradientUnits="userSpaceOnUse" xlink:href="#id1" x1="706.811" y1="2563.46" x2="639.402" y2="2717.91">
  </linearGradient>
  <linearGradient id="id17" gradientUnits="userSpaceOnUse" xlink:href="#id1" x1="4229.55" y1="2641.81" x2="4375.49" y2="2541.63">
  </linearGradient>
  <linearGradient id="id18" gradientUnits="userSpaceOnUse" xlink:href="#id1" x1="705.28" y1="2099.68" x2="224.965" y2="2297.54">
  </linearGradient>
  <linearGradient id="id19" gradientUnits="userSpaceOnUse" x1="198.35" y1="1545.88" x2="439.484" y2="1391.8">
   <stop offset="0" style="stop-opacity:1; stop-color:#CB226D"/>
   <stop offset="1" style="stop-opacity:1; stop-color:#4C236D"/>
  </linearGradient>
  <linearGradient id="id20" gradientUnits="userSpaceOnUse" xlink:href="#id1" x1="4012.15" y1="2617.85" x2="4008.37" y2="2652.54">
  </linearGradient>
  <linearGradient id="id21" gradientUnits="userSpaceOnUse" xlink:href="#id0" x1="3862.44" y1="1285.65" x2="3785.89" y2="1433.37">
  </linearGradient>
  <linearGradient id="id22" gradientUnits="userSpaceOnUse" xlink:href="#id0" x1="4075.19" y1="2483" x2="4060.1" y2="2564.02">
  </linearGradient>
  <linearGradient id="id23" gradientUnits="userSpaceOnUse" xlink:href="#id1" x1="510.996" y1="1021.04" x2="549.969" y2="1245.11">
  </linearGradient>
  <linearGradient id="id24" gradientUnits="userSpaceOnUse" xlink:href="#id0" x1="1072.81" y1="1105.42" x2="1026.27" y2="1051.67">
  </linearGradient>
  <linearGradient id="id25" gradientUnits="userSpaceOnUse" xlink:href="#id10" x1="3887.13" y1="1149.15" x2="3784.9" y2="1203.4">
  </linearGradient>
  <linearGradient id="id26" gradientUnits="userSpaceOnUse" xlink:href="#id19" x1="288.366" y1="1776.82" x2="900.272" y2="1392.92">
  </linearGradient>
  <linearGradient id="id27" gradientUnits="userSpaceOnUse" xlink:href="#id0" x1="4260.37" y1="1154.35" x2="4303.19" y2="1121.19">
  </linearGradient>
  <linearGradient id="id28" gradientUnits="userSpaceOnUse" xlink:href="#id0" x1="3884.35" y1="1155.35" x2="3837.01" y2="1181.05">
  </linearGradient>
  <linearGradient id="id29" gradientUnits="userSpaceOnUse" xlink:href="#id1" x1="462.469" y1="2608.78" x2="384.22" y2="2693.59">
  </linearGradient>
  <linearGradient id="id30" gradientUnits="userSpaceOnUse" xlink:href="#id0" x1="4266.73" y1="1064.47" x2="4153.19" y2="1164.26">
  </linearGradient>
  <linearGradient id="id31" gradientUnits="userSpaceOnUse" xlink:href="#id0" x1="4245.48" y1="1133.98" x2="4208.95" y2="1276.33">
  </linearGradient>
  <linearGradient id="id32" gradientUnits="userSpaceOnUse" xlink:href="#id1" x1="721.776" y1="2150.32" x2="357.815" y2="2257.89">
  </linearGradient>
  <linearGradient id="id33" gradientUnits="userSpaceOnUse" xlink:href="#id1" x1="3937.31" y1="2642.04" x2="4083.97" y2="2542.13">
  </linearGradient>
  <linearGradient id="id34" gradientUnits="userSpaceOnUse" xlink:href="#id0" x1="345.961" y1="1900.24" x2="197.209" y2="1556.66">
  </linearGradient>
  <linearGradient id="id35" gradientUnits="userSpaceOnUse" xlink:href="#id1" x1="4305.02" y1="2617.85" x2="4301.24" y2="2652.54">
  </linearGradient>
  <linearGradient id="id36" gradientUnits="userSpaceOnUse" xlink:href="#id1" x1="3898.45" y1="1135.19" x2="3766.46" y2="1219.25">
  </linearGradient>
  <linearGradient id="id37" gradientUnits="userSpaceOnUse" xlink:href="#id0" x1="887.673" y1="1200.07" x2="942.685" y2="1333.88">
  </linearGradient>
  <linearGradient id="id38" gradientUnits="userSpaceOnUse" xlink:href="#id10" x1="4402.5" y1="1153.07" x2="3907.23" y2="1882.75">
  </linearGradient>
  <linearGradient id="id39" gradientUnits="userSpaceOnUse" x1="1821.14" y1="2482.91" x2="2302.13" y2="71.748">
   <stop offset="0" style="stop-opacity:1; stop-color:#9CFFFB"/>
   <stop offset="1" style="stop-opacity:1; stop-color:#9BFFF9"/>
  </linearGradient>
  <linearGradient id="id40" gradientUnits="userSpaceOnUse" xlink:href="#id1" x1="2045.05" y1="2575.09" x2="2059.92" y2="2084.66">
  </linearGradient>
  <linearGradient id="id41" gradientUnits="userSpaceOnUse" xlink:href="#id1" x1="811.76" y1="1698.07" x2="818.957" y2="1533.49">
  </linearGradient>
  <linearGradient id="id42" gradientUnits="userSpaceOnUse" xlink:href="#id1" x1="1212.75" y1="1183.1" x2="1217.48" y2="1000.7">
  </linearGradient>
  <linearGradient id="id43" gradientUnits="userSpaceOnUse" xlink:href="#id1" x1="815.815" y1="1436.47" x2="822.311" y2="1279.7">
  </linearGradient>
  <linearGradient id="id44" gradientUnits="userSpaceOnUse" x1="2534.24" y1="1072.86" x2="4123.11" y2="1072.86">
   <stop offset="0" style="stop-opacity:1; stop-color:#A737D5"/>
   <stop offset="1" style="stop-opacity:1; stop-color:#EE497A"/>
  </linearGradient>
 </defs>
 <g id="Layer_x0020_1">
  <metadata id="CorelCorpID_0Corel-Layer"/>
  <g id="_970932512">
   <g>
    <g>
     <path class="fil0" d="M4123 186l-46 1957 0 2 -7 302c0,39 -33,72 -72,72l-3893 0c-40,0 -72,-33 -72,-72l-5 -302 0 -2 -28 -1934c0,-39 47,-116 132,-111l2402 -62 1403 -36c50,-1 98,18 133,53 35,35 54,83 53,133z"/>
    </g>
    <g>
     <path class="fil1" d="M3974 2385c0,37 -30,68 -68,68l-3709 0c-37,0 -68,-31 -68,-68l-31 -2087c0,-37 44,-109 126,-104l3624 -92c47,-1 93,17 127,50 33,32 51,77 50,123l-51 2110z"/>
    </g>
    <g>
     <path class="fil2" d="M2096 1088c-1,35 -25,64 -52,64l-1654 8c-31,0 -56,-31 -56,-68 0,-37 26,-69 57,-69l1657 0c28,0 49,31 48,65z"/>
     <path class="fil3" d="M1293 1354c-1,29 -23,52 -50,53l-847 10c-28,0 -51,-23 -50,-53l0 -3c0,-30 23,-54 51,-54l849 -8c26,0 47,23 47,52l0 3z"/>
     <path class="fil4" d="M1287 1608c-1,29 -23,52 -49,53l-844 17c-28,0 -50,-23 -50,-52l0 -4c0,-29 23,-53 51,-54l845 -14c27,0 48,22 47,51l0 3z"/>
    </g>
    <path class="fil5" d="M4077 2146l-7 299c0,40 -33,69 -72,69l-3893 0c-40,0 -72,-29 -72,-69l-5 -299 4049 0z"/>
    <path class="fil6" d="M98 1072c-3,0 -6,-3 -6,-6l0 -746c0,-78 64,-144 140,-144l321 0c3,0 6,3 6,6 0,3 -3,5 -6,5l-321 0c-70,0 -129,61 -129,133l0 746c0,3 -2,6 -5,6z"/>
    <path class="fil7" d="M4123 186l-46 1958 0 2 -871 0c0,-669 -117,-1138 -253,-1469 -42,-104 -87,-193 -131,-270 -71,-124 -139,-214 -191,-274 -58,-67 -97,-97 -97,-97 0,0 0,0 0,0l1403 -36c50,-1 98,18 133,53 35,35 54,83 53,133z"/>
    <path class="fil6" d="M3447 414l-3016 -34c-98,-1 -172,73 -164,164 8,90 94,162 190,161l2968 -33c60,-1 114,-58 120,-128 7,-71 -37,-129 -98,-130z"/>
    <g>
     <path class="fil6" d="M2513 1774c-78,0 -141,-63 -141,-140 0,-78 63,-141 141,-141 77,0 140,63 140,141 0,77 -63,140 -140,140zm0 -262l0 0c-67,0 -122,55 -122,122 0,67 55,121 122,121 67,0 121,-54 121,-121 0,-67 -54,-122 -121,-122z"/>
     <path class="fil6" d="M2509 1706c-36,0 -65,-29 -65,-66 0,-36 29,-66 65,-66 37,0 66,30 66,66 0,37 -29,66 -66,66zm0 -113l0 0c-25,0 -46,21 -46,47 0,26 21,47 46,47 26,0 47,-21 47,-47 0,-26 -21,-47 -47,-47z"/>
     <path class="fil6" d="M3565 1774c-77,0 -140,-63 -140,-140 0,-78 63,-141 140,-141 78,0 141,63 141,141 0,77 -63,140 -141,140zm0 -262l0 0c-67,0 -121,55 -121,122 0,67 54,121 121,121 67,0 122,-54 122,-121 0,-67 -55,-122 -122,-122z"/>
     <path class="fil6" d="M3562 1706c-36,0 -66,-29 -66,-66 0,-36 30,-66 66,-66 36,0 66,30 66,66 0,37 -30,66 -66,66zm0 -113l0 0c-26,0 -47,21 -47,47 0,26 21,47 47,47 26,0 47,-21 47,-47 0,-26 -21,-47 -47,-47z"/>
     <path class="fil6" d="M2669 1667c-5,0 -10,-4 -10,-9 0,-5 4,-10 10,-10l745 -13c0,0 0,0 0,0 5,0 10,4 10,9 0,5 -4,10 -10,10l-745 13c0,0 0,0 0,0z"/>
     <path class="fil6" d="M2362 1694l-35 0c-28,0 -52,-22 -55,-50l-40 -403c-6,-53 10,-104 44,-145 34,-40 81,-65 134,-70 226,-19 664,-47 1052,-24 95,6 174,79 187,174 4,28 8,56 11,80 4,30 27,55 56,62 11,2 21,5 30,7 61,16 105,70 108,133l4 113c1,20 -6,39 -20,53 -14,14 -32,22 -52,22l-56 0c-5,0 -9,-4 -9,-9 0,-5 4,-10 9,-10l56 0c14,0 28,-6 38,-16 10,-11 16,-24 15,-39l-4 -113c-2,-55 -41,-102 -93,-116 -10,-2 -20,-4 -30,-7 -37,-8 -66,-39 -71,-77 -3,-24 -7,-52 -11,-81 -12,-85 -83,-151 -169,-157 -387,-23 -824,5 -1050,24 -47,4 -90,27 -121,64 -30,36 -44,83 -40,130l41 403c2,19 18,33 36,33l35 0c6,0 10,4 10,9 0,6 -4,10 -10,10z"/>
     <path class="fil6" d="M2352 1343c-30,0 -55,-19 -59,-44 -6,-42 -5,-83 3,-121 10,-45 57,-79 112,-79l702 -7c0,0 0,0 0,0 30,0 54,19 55,43l11 140c1,13 -4,25 -13,35 -11,13 -29,20 -48,21l-762 12c0,0 -1,0 -1,0zm1 -9l0 0 0 0 0 0zm757 -223l0 0c0,0 0,0 0,0l-702 7c-46,0 -86,27 -93,64 -8,36 -9,75 -3,115 2,15 20,28 41,27l0 0 762 -12c14,-1 26,-6 34,-15 4,-4 9,-11 8,-21l-10 -139c-2,-15 -18,-26 -37,-26z"/>
     <path class="fil6" d="M2303 1419c-5,0 -9,-4 -9,-9 -1,-5 4,-9 9,-10l894 -34c5,0 10,4 10,9 0,5 -4,10 -9,10l-894 34c-1,0 -1,0 -1,0z"/>
     <path class="fil6" d="M2293 1462c-5,0 -9,-4 -9,-9 0,-5 4,-10 9,-10l904 -31c5,0 10,4 10,9 0,5 -4,10 -9,10l-904 31c-1,0 -1,0 -1,0z"/>
     <path class="fil6" d="M3260 1650c-5,0 -9,-3 -10,-8l-54 -486c-3,-16 2,-33 13,-45 10,-13 26,-20 42,-20l124 -3c1,0 1,0 2,0 37,0 69,29 72,66l34 384c0,5 -4,10 -9,10 -5,1 -10,-3 -10,-8l-34 -384c-2,-28 -26,-49 -53,-49 -1,0 -1,0 -1,0l-124 3c-11,0 -22,5 -29,13 -7,8 -10,19 -8,30 0,0 0,0 0,1l54 486c1,5 -3,10 -8,10 -1,0 -1,0 -1,0z"/>
     <path class="fil6" d="M3313 1623c-15,0 -27,-11 -29,-26l-52 -432c-1,-8 2,-16 7,-23 5,-6 13,-9 21,-10l17 0c15,-1 28,11 29,26l0 0 40 433c1,8 -2,16 -7,22 -6,6 -13,10 -22,10l-4 0c0,0 0,0 0,0zm-36 -472l0 0c0,0 0,0 0,0l-16 0c-3,0 -6,2 -8,4 -1,2 -2,5 -2,8l52 432c0,5 5,9 10,9 0,0 0,0 0,0l4 0c3,0 6,-1 8,-3 2,-3 3,-5 2,-8l-39 -433c-1,-5 -5,-9 -11,-9z"/>
     <path class="fil6" d="M3394 1619c-15,0 -28,-11 -29,-26 -5,-56 -31,-342 -38,-427 -1,-9 2,-18 8,-24 7,-6 15,-9 24,-8l29 4c15,2 26,14 26,28l9 424c0,7 -3,15 -8,21 -6,5 -13,8 -21,8zm-38 -466l0 0c-3,0 -5,1 -7,3 -3,2 -4,5 -3,8 7,85 33,371 38,427 0,5 5,9 10,9 3,0 5,-1 7,-3 2,-2 3,-4 3,-7l-9 -423c0,-5 -4,-10 -9,-10l-29 -4c0,0 -1,0 -1,0z"/>
     <path class="fil6" d="M3545 1333c-30,0 -55,-21 -60,-51l-19 -109c-3,-16 1,-33 12,-45 10,-13 25,-21 41,-22l99 -5c5,0 10,4 10,9 0,5 -4,10 -9,10l-99 5c-11,1 -21,6 -28,14 -6,9 -9,20 -7,30l18 110c4,21 23,36 45,35l132 -8c5,-1 10,3 10,9 0,5 -4,9 -9,10l-132 8c-1,0 -3,0 -4,0z"/>
     <path class="fil6" d="M3795 1534c-20,0 -36,-28 -36,-67 0,-38 16,-67 36,-67 21,0 36,29 36,67 0,39 -15,67 -36,67zm0 -115l0 0c-6,0 -17,19 -17,48 0,30 11,48 17,48 6,0 17,-18 17,-48 0,-29 -11,-48 -17,-48z"/>
    </g>
    <path class="fil6" d="M3904 2457l-420 0c-3,0 -5,-3 -5,-6 0,-3 2,-5 5,-5l420 0c53,0 95,-42 95,-96l0 -1273c0,-3 3,-5 6,-5 2,0 5,2 5,5l0 1273c0,60 -47,107 -106,107z"/>
   </g>
   <g>
    <g>
     <path class="fil8" d="M1042 1129c1,4 -15,11 -24,-7 -1,-9 -6,-46 -1,-53 28,-37 81,-84 81,-84 9,9 1,18 1,18l-25 27c5,9 12,18 15,29 2,9 1,19 -4,27 -4,8 -11,19 -16,27 -11,16 -27,16 -27,16z"/>
     <path class="fil9" d="M1062 1047l-23 20 -7 20 20 23c0,0 7,-39 13,-48 5,-8 2,-12 -3,-15z"/>
    </g>
    <g>
     <path class="fil10" d="M581 2593c0,0 -6,33 -9,67 -1,13 9,24 22,24 44,2 139,6 173,4 5,0 8,-5 6,-10 -1,-4 -4,-7 -8,-9l-156 -72 -28 -4z"/>
     <path class="fil11" d="M576 2573l5 40c0,0 27,13 46,-1l-11 -45 -40 6z"/>
     <path class="fil12" d="M580 1819c-2,10 -11,523 44,752 0,4 -1,8 -5,9 -8,4 -25,9 -45,9 -6,1 -11,-3 -13,-9 -16,-54 -91,-320 -100,-575 -11,-285 0,-10 0,-10l6 -176 113 0z"/>
     <path class="fil13" d="M401 2610c0,0 -9,17 -18,62 -2,8 4,16 12,17 15,1 37,3 55,3 9,0 15,-7 14,-15 -2,-17 -8,-44 -27,-65l-36 -2z"/>
     <path class="fil14" d="M393 2559l11 60c0,0 11,9 33,3l-5 -66 -39 3z"/>
     <path class="fil15" d="M363 1835c-45,270 10,668 28,746 1,4 5,8 10,9 8,1 22,2 35,-2 5,-1 8,-5 8,-10 3,-63 -2,-449 40,-602 2,-8 7,-14 13,-19l81 -58 6 -93 -221 29z"/>
     <g>
      <path class="fil16" d="M649 1322c-135,-2 -283,36 -283,36 -40,233 -7,502 -7,502 104,28 221,-16 221,-16 18,-98 98,-372 98,-372 66,-9 120,-28 164,-53 -34,-39 -50,-89 -57,-119 -47,15 -95,23 -136,22z"/>
      <path class="fil17" d="M1045 1125c-13,-16 -30,-9 -30,-9 -20,84 -123,151 -230,184 7,30 23,80 57,119 177,-99 203,-294 203,-294z"/>
     </g>
     <path class="fil18" d="M418 1488l-52 -130c0,0 -125,85 -146,193 24,2 67,8 109,29 9,-51 89,-92 89,-92z"/>
     <path class="fil19" d="M513 1213l-43 124c-1,2 0,4 2,5 12,7 53,25 104,-7 5,-3 9,-8 10,-15l13 -107 -86 0z"/>
     <g>
      <path class="fil20" d="M605 1099c0,0 47,88 41,124 -6,36 -64,33 -115,4l-35 -95 109 -33z"/>
      <path class="fil21" d="M534 1180c2,-1 3,-3 1,-5 -3,-6 -11,-17 -13,-28 0,0 -8,-5 22,-12 30,-7 74,-19 84,-44 9,-25 -15,-87 -54,-37 -1,1 -4,1 -5,0 -7,-9 -23,-26 -46,-15 -22,9 -24,25 -24,33 0,2 -2,4 -4,4 -11,-2 -37,-4 -49,23 -10,22 -3,34 3,40 1,2 1,5 -2,6 -7,2 -16,8 -15,25 1,23 27,21 34,20 1,0 2,0 3,1 6,7 35,37 66,40 2,1 4,-2 3,-5l-13 -38c0,-2 0,-4 2,-5l7 -3z"/>
      <path class="fil22" d="M539 1186c0,0 -33,-23 -36,-4 -2,19 30,28 46,21l-10 -17z"/>
     </g>
     <path class="fil23" d="M329 1580c0,0 -44,198 -4,309 -49,22 -40,18 -40,18 0,0 -96,-281 -65,-356 61,-7 92,10 109,29z"/>
     <path class="fil24" d="M325 1889c0,0 25,32 23,45 -2,13 -2,18 -2,18 0,0 -13,-8 -12,-19 2,35 13,75 3,73 -11,-2 -66,-53 -54,-107 29,-20 37,-18 42,-10z"/>
    </g>
   </g>
   <g>
    <path class="fil25" d="M3863 1193c0,0 9,-15 8,-28 -1,-13 7,-31 -2,-30 -8,2 -10,0 -12,16 -2,15 -23,71 6,42z"/>
    <g>
     <path class="fil26" d="M4267 2635c-30,-1 -46,-4 -54,-8 0,4 0,7 0,10 0,3 3,6 6,6l167 -1c6,0 9,-6 6,-11 -21,2 -77,6 -125,4z"/>
     <path class="fil27" d="M4220 2571c4,-14 17,-23 31,-22l14 0c74,18 112,59 127,80 0,0 0,1 0,1 -22,2 -78,6 -125,5 -30,-1 -46,-5 -54,-8 0,-24 3,-43 7,-56z"/>
    </g>
    <path class="fil28" d="M4288 2501l-11 56c-1,4 -5,8 -8,8 -5,0 -12,1 -18,0 -6,-1 -11,-7 -10,-14l9 -50 38 0z"/>
    <g>
     <path class="fil29" d="M4046 2635c30,-1 46,-4 54,-8 0,4 0,7 0,10 0,3 -2,6 -5,6l-168 -1c-5,0 -8,-6 -6,-11 22,2 78,6 125,4z"/>
     <path class="fil30" d="M3921 2631c0,-1 0,-1 1,-2 14,-20 52,-61 126,-79l36 -1c0,0 16,27 16,78 -8,4 -24,7 -54,8 -47,2 -103,-2 -125,-4z"/>
    </g>
    <path class="fil31" d="M4091 2495c-1,2 -6,43 -7,58 -1,4 -4,7 -7,7 -6,1 -16,2 -24,0 -5,-1 -8,-5 -8,-11l0 -63 46 9z"/>
    <path class="fil32" d="M4119 1756c0,0 -86,328 -84,740 0,7 5,13 13,15 10,2 26,5 39,5 7,-1 13,-6 15,-13 12,-70 81,-469 120,-534 0,0 26,355 18,539 0,5 3,9 8,10 7,0 18,1 32,-1 5,0 9,-4 10,-9 9,-60 58,-417 56,-674 0,-15 -38,-78 -38,-78l-189 0z"/>
    <path class="fil33" d="M4388 1472c23,-64 15,-141 15,-142l-7 0c0,1 9,77 -14,140l6 2z"/>
    <g>
     <path class="fil34" d="M3788 1499c-19,-105 8,-279 8,-279l38 39c0,0 6,142 33,200 -17,3 -52,10 -79,40z"/>
     <path class="fil35" d="M3867 1459c5,11 11,20 18,23 24,14 71,-63 106,-128 26,-48 45,-90 45,-90 25,-28 87,-32 146,-29 60,4 116,16 120,17 0,0 0,0 0,0 28,4 52,7 70,9 20,2 39,12 52,28 54,62 171,231 33,402 -18,-10 -43,-26 -60,-44 15,-43 17,-98 -15,-165 -1,5 -3,10 -4,16 -44,139 -47,256 -47,282 0,4 -2,7 -5,9 -58,23 -170,9 -208,4 -7,-1 -11,-8 -10,-15 11,-81 -20,-194 -51,-282 -183,182 -249,113 -269,3 27,-30 62,-37 79,-40z"/>
    </g>
    <path class="fil36" d="M4295 1765c16,-9 77,-48 102,-118 17,18 42,34 60,44 -26,33 -62,65 -109,97 -2,37 -30,50 -36,62 -7,12 2,9 -2,24 -4,15 -46,-24 -56,-33 -10,-8 -4,-33 -4,-33 0,0 -1,-5 -4,-15 -2,-10 48,-28 49,-28z"/>
    <g>
     <path class="fil37" d="M4272 1147l11 114c0,0 -65,19 -111,-14l33 -103 67 3z"/>
     <g>
      <path class="fil38" d="M4162 1049c0,2 -4,143 -4,143l81 0 23 -133c0,0 -87,-43 -100,-10z"/>
      <path class="fil39" d="M4234 1076c3,2 4,6 4,9l-7 70c0,1 0,2 -1,3 -2,6 -10,23 -27,13 -15,-8 -28,-15 -39,-15 -6,0 -12,5 -12,11 0,13 0,40 3,64 1,5 6,10 12,9 16,-1 47,-4 72,-11 4,-2 7,-5 7,-9 4,-19 14,-70 19,-85 4,-13 22,-17 31,-19 3,0 6,-2 7,-5 6,-8 13,-25 -8,-39 -5,-3 -6,-10 -3,-15 5,-10 10,-25 -7,-37 -17,-13 -33,-7 -44,-1 -4,3 -10,3 -14,0 -2,-2 -4,-3 -7,-2 -6,1 -13,-2 -14,-8 -3,-10 -10,-22 -30,-23 -35,-2 -48,35 -44,59 4,24 43,24 64,17 15,-5 31,7 38,14z"/>
      <path class="fil40" d="M4262 1161c0,0 -5,-42 11,-49 17,-6 37,4 26,31 -14,34 -37,18 -37,18z"/>
     </g>
    </g>
    <g>
     <path class="fil41" d="M4056 1492c0,0 0,0 0,0 1,0 2,-1 2,-2 0,-1 -11,-89 -5,-115 0,-1 -1,-2 -2,-2 -1,-1 -2,0 -2,1 -6,26 4,113 5,116 0,1 1,2 2,2z"/>
    </g>
    <g>
     <path class="fil42" d="M3800 1100c0,-3 1,-5 3,-6 2,-2 4,-2 7,-2l57 13c3,1 4,3 4,5l-17 150c0,1 0,2 -1,2 0,0 -1,1 -2,0l-50 -6c-4,0 -7,-4 -7,-8l6 -148z"/>
     <path class="fil43" d="M3816 1108c0,-1 1,-2 2,-3 1,-1 2,-1 4,-1l38 10c2,0 3,2 3,5l-14 127c0,1 -1,2 -1,2 -1,0 -1,1 -2,0l-35 -6c-1,0 -2,-1 -2,-2l7 -132z"/>
     <path class="fil44" d="M3838 1105c0,0 1,1 1,1l13 3c1,0 2,0 2,-1l0 0c0,-1 -1,-1 -1,-1l-13 -3c-1,0 -2,0 -2,0l0 1z"/>
    </g>
    <path class="fil45" d="M3780 1138c9,-4 27,-35 31,-25 3,11 -2,25 0,29 1,5 12,29 7,40 -3,9 -9,34 -11,47 -1,4 -5,8 -10,8 -4,0 -8,-4 -9,-8 0,-2 -17,-88 -8,-91z"/>
   </g>
  </g>
  <g id="_965722048">
   <path class="fil46" d="M575 541l0 -20c0,-6 -1,-11 -4,-13 -3,-3 -10,-4 -20,-4l-42 0 0 54 42 0c10,0 17,-1 20,-3 3,-3 4,-7 4,-14zm-81 84l0 -135 57 0c15,0 26,2 31,7 7,4 9,12 9,24l0 20c0,12 -2,20 -9,24 -5,5 -16,8 -31,8l-42 0 0 52 -15 0z"/>
   <path id="_1" class="fil46" d="M674 504l-44 0 0 54 44 0c11,0 19,-1 22,-4 3,-3 5,-8 5,-15l0 -15c0,-8 -1,-13 -5,-16 -3,-2 -10,-4 -22,-4zm-58 121l0 -135 61 0c15,0 26,2 31,7 6,4 9,12 9,24l0 20c0,7 -2,13 -5,16 -2,5 -7,8 -13,8 7,1 12,4 14,8 2,4 4,10 4,19l0 33 -16 0 0 -28c0,-10 -1,-16 -5,-20 -2,-4 -9,-4 -17,-4l-49 0 0 52 -14 0z"/>
   <polygon id="_2" class="fil46" points="745,625 745,490 760,490 760,625 "/>
   <polygon id="_3" class="fil46" points="793,625 793,490 817,490 890,610 890,490 905,490 905,625 882,625 809,504 809,625 "/>
   <polygon id="_4" class="fil46" points="919,504 919,490 1020,490 1020,504 977,504 977,625 962,625 962,504 "/>
   <polygon id="_5" class="fil46" points="1142,625 1128,625 1128,565 1072,490 1090,490 1135,553 1181,490 1198,490 1142,565 "/>
   <path id="_6" class="fil46" d="M1263 502l-8 0c-9,0 -16,1 -19,2 -5,1 -8,3 -11,5 -2,2 -4,6 -5,9 -1,4 -2,11 -2,20l0 38c0,10 1,16 2,21 1,3 3,6 5,9 3,2 6,4 11,5 3,1 10,2 19,2l8 0c10,0 17,-1 21,-2 4,-1 7,-3 11,-5 2,-2 4,-6 5,-9 1,-4 2,-11 2,-21l0 -38c0,-9 -1,-16 -2,-20 -1,-4 -4,-7 -6,-10 -3,-1 -6,-3 -10,-4 -4,-1 -11,-2 -21,-2zm-60 32c0,-17 3,-29 11,-35 7,-7 19,-11 37,-11l17 0c19,0 31,4 38,10 7,7 11,19 11,36l0 46c0,18 -4,29 -11,36 -7,7 -19,10 -38,10l-17 0c-18,0 -30,-3 -37,-10 -8,-7 -11,-18 -11,-36l0 -46z"/>
   <path id="_7" class="fil46" d="M1344 490l15 0 0 88c0,9 1,15 2,19 0,3 2,6 4,8 3,2 5,3 9,4 3,1 9,2 17,2l14 0c9,0 14,-1 18,-2 3,-1 6,-2 9,-4 2,-2 3,-5 4,-8 1,-4 2,-10 2,-19l0 -88 14 0 0 91c0,17 -2,28 -10,35 -7,7 -18,10 -35,10l-17 0c-17,0 -29,-3 -36,-10 -7,-7 -10,-18 -10,-35l0 -91z"/>
   <path id="_8" class="fil46" d="M1542 504l-43 0 0 54 43 0c11,0 18,-1 22,-4 3,-3 5,-8 5,-15l0 -15c0,-8 -2,-13 -5,-16 -3,-2 -11,-4 -22,-4zm-58 121l0 -135 61 0c15,0 26,2 31,7 6,4 9,12 9,24l0 20c0,7 -2,13 -5,16 -2,5 -7,8 -13,8 6,1 11,4 13,8 3,4 5,10 5,19l0 33 -16 0 0 -28c0,-10 -1,-16 -5,-20 -2,-4 -9,-4 -17,-4l-48 0 0 52 -15 0z"/>
   <polygon id="_9" class="fil46" points="1658,504 1658,490 1758,490 1758,504 1716,504 1716,625 1701,625 1701,504 "/>
   <polygon id="_10" class="fil46" points="1773,625 1773,490 1788,490 1788,625 "/>
   <path id="_11" class="fil46" d="M1816 534c0,-17 4,-29 10,-35 7,-7 19,-11 36,-11l15 0c17,0 28,3 36,9 6,6 9,16 9,29l0 7 -15 0 0 -4c0,-11 -2,-17 -6,-21 -5,-4 -13,-6 -25,-6l-11 0c-8,0 -13,1 -17,2 -4,1 -7,3 -9,4 -3,3 -5,6 -6,9 -1,5 -2,11 -2,21l0 38c0,10 1,17 2,21 1,3 3,7 6,9 2,2 5,4 9,5 3,1 9,2 17,2l11 0c12,0 20,-3 25,-7 4,-3 6,-11 6,-22 0,-2 0,-3 0,-4 0,-1 0,-2 0,-3l15 0 0 9c0,15 -3,26 -9,32 -7,5 -19,8 -36,8l-15 0c-17,0 -29,-3 -36,-10 -6,-7 -10,-18 -10,-36l0 -46z"/>
   <polygon id="_12" class="fil46" points="1947,625 1947,490 1962,490 1962,547 1974,547 2028,490 2048,490 1986,554 2056,625 2035,625 1974,562 1962,562 1962,625 "/>
   <polygon id="_13" class="fil46" points="2072,625 2072,490 2166,490 2166,504 2086,504 2086,549 2164,549 2164,562 2086,562 2086,611 2166,611 2166,625 "/>
   <polygon id="_14" class="fil46" points="2172,504 2172,490 2272,490 2272,504 2229,504 2229,625 2214,625 2214,504 "/>
   <polygon id="_15" class="fil46" points="2350,625 2350,490 2365,490 2365,548 2442,548 2442,490 2457,490 2457,625 2442,625 2442,562 2365,562 2365,625 "/>
   <polygon id="_16" class="fil46" points="2489,625 2489,490 2584,490 2584,504 2505,504 2505,549 2582,549 2582,562 2505,562 2505,611 2584,611 2584,625 "/>
   <path id="_17" class="fil46" d="M2666 504l-43 0 0 54 43 0c11,0 18,-1 22,-4 4,-3 5,-8 5,-15l0 -15c0,-8 -1,-13 -5,-16 -3,-2 -11,-4 -22,-4zm-58 121l0 -135 61 0c15,0 25,2 31,7 6,4 8,12 8,24l0 20c0,7 0,13 -3,16 -4,5 -7,8 -13,8 6,1 10,4 13,8 3,4 3,10 3,19l0 33 -15 0 0 -28c0,-10 -1,-16 -4,-20 -4,-4 -9,-4 -18,-4l-48 0 0 52 -15 0z"/>
   <polygon id="_18" class="fil46" points="2738,625 2738,490 2832,490 2832,504 2753,504 2753,549 2830,549 2830,562 2753,562 2753,611 2832,611 2832,625 "/>
  </g>
  <g id="_727686864">
   <g>
    <path class="fil47" d="M3695 678c0,33 -168,60 -375,60 -207,0 -375,-27 -375,-60 0,-33 168,-61 375,-61 207,0 375,28 375,61z"/>
   </g>
   <g>
    <path class="fil6" d="M3666 371l-20 19c-1,2 -1,4 0,5 1,1 3,1 5,0l19 -20c1,-1 1,-1 1,-2 0,-1 0,-2 -1,-2 0,-1 -1,-1 -2,-1 -1,0 -1,0 -2,1z"/>
    <path class="fil6" d="M3623 378l0 -25c0,-1 -1,-3 -3,-3 -1,0 -3,2 -3,3l0 25c0,2 2,3 3,3 2,0 3,-1 3,-3z"/>
    <path class="fil6" d="M3663 424l24 0c2,0 4,-2 4,-3 0,-2 -2,-4 -4,-4l-24 0c-2,0 -3,2 -3,4 0,1 1,3 3,3z"/>
   </g>
   <g>
    <path class="fil48" d="M3461 525l-302 0 0 -238c0,-5 4,-9 9,-9l284 0c5,0 9,4 9,9l0 238z"/>
    <polygon class="fil49" points="3426,412 3426,289 3461,346 3461,412 "/>
   </g>
   <g>
    <path class="fil50" d="M3634 666l-648 0 0 -224c0,-9 8,-16 17,-16l615 0c9,0 16,7 16,16l0 224z"/>
    <path class="fil51" d="M3621 666l-621 0 0 -239c0,-8 6,-15 14,-15l596 0c6,0 11,5 11,11l0 243z"/>
    <polygon class="fil50" points="3527,666 3093,666 3093,412 3527,412 "/>
    <polygon class="fil52" points="3634,666 2986,666 2986,647 3634,647 "/>
    <polygon class="fil53" points="3482,666 3138,666 3138,568 3482,568 "/>
    <polygon class="fil54" points="3482,666 3394,666 3394,568 3482,568 "/>
    <polygon class="fil55" points="3482,595 3138,595 3138,568 3482,568 "/>
    <path class="fil56" d="M3634 464l-648 0 0 -22c0,-9 8,-16 17,-16l615 0c9,0 16,7 16,16l0 22z"/>
    <path class="fil50" d="M3514 732l-408 0c-5,0 -8,-6 -5,-11l37 -51 344 0 38 51c3,5 0,11 -6,11z"/>
    <polygon class="fil48" points="3516,718 3105,718 3150,651 3475,651 "/>
    <g>
     <path class="fil57" d="M3592 513c0,8 -6,15 -15,15 -8,0 -15,-7 -15,-15 0,-8 7,-15 15,-15 9,0 15,7 15,15z"/>
     <path class="fil57" d="M3592 544l0 9 -30 0 0 -9 30 0zm-30 28l0 0 30 0 0 -8 -30 0 0 8z"/>
    </g>
    <polygon class="fil58" points="3074,632 3019,632 3019,615 3074,615 "/>
    <polygon class="fil59" points="3068,626 3025,626 3025,621 3068,621 "/>
    <polygon class="fil6" points="3426,412 3195,412 3195,224 3426,224 "/>
    <polygon class="fil60" points="3423,412 3198,412 3198,392 3423,392 "/>
    <polygon class="fil61" points="3483,706 3486,669 3475,651 3453,651 "/>
    <g>
     <path class="fil6" d="M3488 709l-355 0 9 -13c12,-17 20,-38 23,-59l0 0c2,-14 7,-27 15,-39l11 -16 239 0 11 16c7,12 13,25 15,39 3,21 11,42 23,59l9 13z"/>
     <g>
      <g>
       <path class="fil58" d="M3404 600l-187 0c-2,0 -4,-1 -3,-3l0 0c1,-1 3,-2 5,-2l183 0c2,0 4,1 5,2 0,2 -1,3 -3,3z"/>
       <path class="fil6" d="M3404 601l-187 0c-2,0 -3,0 -4,-1 -1,-1 -1,-2 0,-3 0,-2 3,-3 6,-3l183 0c3,0 5,1 6,3 0,1 0,2 0,3 -1,1 -2,1 -4,1zm-185 -5l0 0c-2,0 -3,1 -4,2 0,0 1,1 2,1l187 0c1,0 1,-1 1,-1 0,-1 -2,-2 -3,-2l-183 0z"/>
      </g>
      <g>
       <path class="fil58" d="M3408 612l-196 0c-2,0 -3,-1 -3,-2 1,-2 3,-3 5,-3l192 0c3,0 5,1 5,3 1,1 0,2 -3,2z"/>
       <path class="fil6" d="M3408 614l-196 0c-2,0 -3,-1 -4,-2 0,-1 0,-2 0,-3 1,-2 3,-3 6,-3l192 0c3,0 6,1 7,3 0,1 0,2 -1,3 0,1 -2,2 -4,2zm-194 -6l0 0c-1,0 -3,1 -3,2 -1,0 0,1 0,1 0,0 0,0 1,0l196 0c1,0 2,0 2,0 0,0 0,-1 0,-1 0,-1 -2,-2 -4,-2l-192 0z"/>
      </g>
      <g>
       <path class="fil58" d="M3414 626l-207 0c-2,0 -4,-1 -3,-3 1,-1 3,-3 5,-3l202 0c3,0 5,2 6,3 0,2 -1,3 -3,3z"/>
       <path class="fil6" d="M3414 628l-207 0c-2,0 -3,-1 -4,-2 -1,-1 -1,-2 0,-3 1,-3 3,-4 6,-4l202 0c3,0 6,1 7,4 0,1 0,2 0,3 -1,1 -3,2 -4,2zm-205 -6l0 0c-2,0 -3,1 -4,2 0,0 0,0 0,0 0,1 1,1 2,1l207 0c1,0 1,0 1,-1 0,0 0,0 0,0 0,-1 -2,-2 -4,-2l-202 0z"/>
      </g>
      <g>
       <path class="fil58" d="M3418 642l-215 0c-2,0 -4,-2 -4,-4 0,-2 2,-3 5,-3l213 0c2,0 4,1 5,3 0,2 -2,4 -4,4z"/>
       <path class="fil6" d="M3418 643l-215 0c-2,0 -3,0 -4,-1 -1,-1 -1,-3 -1,-4 0,-2 3,-5 6,-5l213 0c3,0 6,3 6,5 0,1 0,3 -1,4 -1,1 -3,1 -4,1zm-214 -7l0 0c-2,0 -3,1 -4,3 0,0 1,0 1,1 0,0 1,1 2,1l215 0c1,0 1,-1 2,-1 0,-1 0,-1 0,-1 0,-2 -1,-3 -3,-3l-213 0z"/>
      </g>
      <g>
       <path class="fil58" d="M3419 659l-218 0c-2,0 -4,-2 -4,-4 0,-2 3,-3 5,-3l217 0c2,0 4,1 4,3 1,2 -1,4 -4,4z"/>
       <path class="fil6" d="M3419 660l-218 0c-2,0 -3,0 -4,-2 -1,0 -1,-2 -1,-3 0,-3 3,-5 6,-5l217 0c3,0 6,2 6,5 0,1 0,3 -1,3 -1,2 -3,2 -5,2zm-217 -7l0 0c-2,0 -3,1 -3,2 0,1 0,1 0,2 0,0 1,0 2,0l218 0c1,0 2,0 3,0 0,-1 0,-1 0,-2 0,-1 -2,-2 -3,-2l-217 0z"/>
      </g>
      <g>
       <path class="fil58" d="M3335 678l-141 0c-3,0 -4,-2 -4,-4 1,-3 4,-4 7,-4l135 0c2,0 5,1 6,4 1,2 0,4 -3,4z"/>
       <path class="fil6" d="M3335 680l-141 0c-2,0 -4,-1 -4,-2 -1,-2 -1,-3 -1,-5 1,-3 5,-5 8,-5l135 0c3,0 6,2 7,5 1,2 1,3 0,5 -1,1 -2,2 -4,2zm-138 -9l0 0c-2,0 -5,2 -5,3 0,1 0,2 0,2 0,0 1,1 2,1l141 0c1,0 1,-1 2,-1 0,0 0,-1 0,-2 -1,-1 -3,-3 -5,-3l-135 0z"/>
      </g>
     </g>
     <polygon class="fil62" points="3191,582 3430,582 3444,604 3176,604 "/>
    </g>
   </g>
  </g>
 </g>
</svg>
