<?xml version="1.0" encoding="UTF-8"?>
<!DOCTYPE svg PUBLIC "-//W3C//DTD SVG 1.1//EN" "http://www.w3.org/Graphics/SVG/1.1/DTD/svg11.dtd">
<!-- Creator: CorelDRAW X7 -->
<svg xmlns="http://www.w3.org/2000/svg" xml:space="preserve" width="0.19685in" height="0.19685in" version="1.1" style="shape-rendering:geometricPrecision; text-rendering:geometricPrecision; image-rendering:optimizeQuality; fill-rule:evenodd; clip-rule:evenodd"
viewBox="0 0 197 197"
 xmlns:xlink="http://www.w3.org/1999/xlink">
 <defs>
  <style type="text/css">
   <![CDATA[
    .fil0 {fill:#FEFEFE}
   ]]>
  </style>
 </defs>
 <g id="Layer_x0020_1">
  <metadata id="CorelCorpID_0Corel-Layer"/>
  <path class="fil0" d="M100 140c1,-3 3,-7 5,-9 1,-1 1,-2 4,-3 6,-1 22,4 28,5 5,1 7,2 9,5 4,5 3,10 0,15 -3,4 -6,7 -11,10 -18,10 -44,-3 -59,-14 -16,-11 -30,-23 -39,-41 -6,-13 -10,-29 -3,-43 3,-5 9,-11 15,-12 3,-1 8,0 10,2 3,2 3,4 5,8 1,7 6,22 5,29 0,2 -1,3 -2,4 -2,1 -3,2 -4,2 -2,1 -4,2 -4,3 1,5 12,18 17,23 1,1 2,1 3,2 8,7 9,8 21,14zm-3 -71c2,0 10,3 12,4 7,3 13,9 16,17 2,3 5,10 0,11 -5,1 -5,-5 -7,-10 -2,-3 -5,-7 -8,-9 -10,-7 -14,-4 -16,-8 -1,-2 1,-4 3,-5zm20 -14c8,4 13,8 18,15 1,1 2,2 3,3 3,5 15,26 7,28 -5,0 -5,-5 -6,-8 -1,-3 -2,-7 -3,-10 -2,-2 -4,-5 -5,-8l-7 -6c-6,-6 -13,-10 -22,-11 -2,-1 -4,-1 -6,-1 -3,-1 -3,-7 1,-8 4,-1 17,4 20,6zm51 40c0,4 0,6 -2,7 -6,2 -6,-6 -7,-11 -1,-5 -3,-9 -5,-14 -3,-7 -6,-10 -11,-16 -2,-2 -5,-5 -7,-7 -10,-8 -22,-13 -35,-15 -3,0 -6,0 -8,-2 -1,-1 -1,-4 2,-6 2,-1 13,2 16,2 4,1 9,3 13,5 5,2 8,4 12,7 2,1 3,2 5,4l7 6 6 8c7,9 12,21 14,32zm-168 10c3,52 49,95 105,92 52,-4 95,-49 92,-105 -4,-52 -49,-95 -105,-92 -52,4 -95,48 -92,105z"/>
 </g>
</svg>
